<?xml version="1.0" encoding="utf-8"?>
<!-- Generator: Adobe Illustrator 19.0.0, SVG Export Plug-In . SVG Version: 6.00 Build 0)  -->
<svg version="1.1" id="圖層_1" xmlns="http://www.w3.org/2000/svg" xmlns:xlink="http://www.w3.org/1999/xlink" x="0px" y="0px"
	 viewBox="6 -6 512 512" style="enable-background:new 6 -6 512 512;" xml:space="preserve">
<style type="text/css">
	.st0{fill:#96BBBB;}
	.st1{fill:#FFCB7C;}
	.st2{fill:#FFD89E;}
	.st3{fill:#FFFFFF;}
</style>
<path class="st0" d="M454.9,214.7c7.7-12.5,12.2-27.2,12.2-43c0-45.2-36.6-81.8-81.8-81.8c-45.2,0-81.8,36.6-81.8,81.8
	c0,15.8,4.5,30.5,12.2,43c-31,11.6-53.1,41.5-53.1,76.6c0,45.2,36.6,81.8,81.8,81.8c14.9,0,28.9-4,40.9-10.9c12,7,26,10.9,40.9,10.9
	c45.2,0,81.8-36.6,81.8-81.8C508,256.2,485.9,226.3,454.9,214.7z"/>
<path class="st1" d="M16,4h308v40H16V4z"/>
<path class="st2" d="M24,44h292v452H24V44z"/>
<g>
	<path class="st3" d="M108,442H64v-56h44V442z"/>
	<path class="st3" d="M192,442h-44v-56h44V442z"/>
	<path class="st3" d="M276,442h-44v-56h44V442z"/>
	<path class="st3" d="M108,346H64v-56h44V346z"/>
	<path class="st3" d="M192,346h-44v-56h44V346z"/>
	<path class="st3" d="M276,346h-44v-56h44V346z"/>
	<path class="st3" d="M108,250H64v-56h44V250z"/>
	<path class="st3" d="M192,250h-44v-56h44V250z"/>
	<path class="st3" d="M276,250h-44v-56h44V250z"/>
	<path class="st3" d="M108,154H64V98h44V154z"/>
	<path class="st3" d="M192,154h-44V98h44V154z"/>
	<path class="st3" d="M276,154h-44V98h44V154z"/>
</g>
<path class="st0" d="M268.2,496c-4.5-5.4-7.2-12.3-7.2-19.8c0-17.1,13.8-30.9,30.9-30.9c0.6,0,1.2,0,1.8,0.1
	c6.9-15.8,22.7-26.8,41-26.8c19.8,0,36.6,12.9,42.5,30.7c4.5-2.5,9.6-3.9,15.1-3.9c17.1,0,30.9,13.8,30.9,30.9
	c0,7.6-2.7,14.5-7.2,19.8H268.2z"/>
<path d="M426.2,383.1c50.6,0,91.8-41.2,91.8-91.8c0-34.2-19.4-65.6-49.2-81.3c5.5-11.9,8.3-25,8.3-38.2c0-50.6-41.2-91.8-91.8-91.8
	c-22.2,0-43,7.8-59.4,21.7V53.8c4.6-0.9,8-5,8-9.8V4c0-5.5-4.5-10-10-10H16C10.5-6,6-1.5,6,4v40c0,4.8,3.4,8.9,8,9.8V496
	c0,5.5,4.5,10,10,10h392c3,0,5.8-1.3,7.7-3.6c6.2-7.3,9.5-16.7,9.5-26.3c0-21.5-16.7-39.2-37.8-40.8v-57.7
	C405.2,381.2,415.7,383.1,426.2,383.1z M385.4,100c39.6,0,71.8,32.2,71.8,71.8c0,13.4-3.7,26.4-10.7,37.7c-1.6,2.5-1.9,5.7-1,8.5
	c1,2.8,3.1,5.1,6,6.1c27.9,10.4,46.6,37.5,46.6,67.2c0,39.6-32.2,71.8-71.8,71.8c-10.7,0-21.3-2.4-30.9-7v-33.9l45.4-45.4
	c3.9-3.9,3.9-10.2,0-14.1c-3.9-3.9-10.2-3.9-14.1,0l-31.3,31.3V270c0,0,0,0,0,0v-71.7c0-5.5-4.5-10-10-10c-5.5,0-10,4.5-10,10v47.5
	l-8.3-8.3c-3.9-3.9-10.2-3.9-14.1,0c-3.9,3.9-3.9,10.2,0,14.1l22.4,22.4V318v0v38.1c-9.6,4.6-20.2,7-30.9,7
	c-6.3,0-12.5-0.8-18.5-2.4V131.4C339.4,111.7,361.4,100,385.4,100z M375.4,426.6c-10.2-11.3-24.8-18.1-40.6-18.1
	c-2.9,0-5.9,0.2-8.7,0.7v-28c6,1.2,12.2,1.9,18.5,1.9c10.6,0,21-1.8,30.9-5.3V426.6z M34,54h90.7c5.5,0,10-4.5,10-10s-4.5-10-10-10
	H26V14h288v20h-99.3c-5.5,0-10,4.5-10,10s4.5,10,10,10H306v362.6c-7.5,4.6-13.9,11.1-18.5,18.8c-0.5,0.1-1,0.1-1.5,0.2V386
	c0-5.5-4.5-10-10-10h-44c-5.5,0-10,4.5-10,10v56c0,5.5,4.5,10,10,10h26.9c-5,6.8-7.9,15.1-7.9,24.2c0,3.3,0.4,6.6,1.2,9.8H34V54z
	 M266,432h-24v-36h24V432z M413.2,476.2c0,3.4-0.9,6.8-2.5,9.8H273.4c-1.6-3-2.5-6.4-2.5-9.8c0-11.5,9.4-20.9,20.9-20.9
	c0.4,0,0.8,0,1.2,0c4.2,0.2,8.1-2.1,9.7-6c5.5-12.6,18-20.8,31.8-20.8c15,0,28.3,9.6,33,23.8c0.9,2.8,3.1,5.1,5.9,6.2
	c2.8,1.1,5.9,0.9,8.5-0.6c3.1-1.7,6.6-2.7,10.2-2.7C403.8,455.3,413.2,464.6,413.2,476.2z"/>
<path d="M108,376H64c-5.5,0-10,4.5-10,10v56c0,5.5,4.5,10,10,10h44c5.5,0,10-4.5,10-10v-56C118,380.5,113.5,376,108,376z M98,432H74
	v-36h24V432z"/>
<path d="M192,376h-44c-5.5,0-10,4.5-10,10v56c0,5.5,4.5,10,10,10h44c5.5,0,10-4.5,10-10v-56C202,380.5,197.5,376,192,376z M182,432
	h-24v-36h24V432z"/>
<path d="M108,280H64c-5.5,0-10,4.5-10,10v56c0,5.5,4.5,10,10,10h44c5.5,0,10-4.5,10-10v-56C118,284.5,113.5,280,108,280z M98,336H74
	v-36h24V336z"/>
<path d="M192,280h-44c-5.5,0-10,4.5-10,10v56c0,5.5,4.5,10,10,10h44c5.5,0,10-4.5,10-10v-56C202,284.5,197.5,280,192,280z M182,336
	h-24v-36h24V336z"/>
<path d="M232,356h44c5.5,0,10-4.5,10-10v-56c0-5.5-4.5-10-10-10h-44c-5.5,0-10,4.5-10,10v56C222,351.5,226.5,356,232,356z M242,300
	h24v36h-24V300z"/>
<path d="M108,184H64c-5.5,0-10,4.5-10,10v56c0,5.5,4.5,10,10,10h44c5.5,0,10-4.5,10-10v-56C118,188.5,113.5,184,108,184z M98,240H74
	v-36h24V240z"/>
<path d="M192,184h-44c-5.5,0-10,4.5-10,10v56c0,5.5,4.5,10,10,10h44c5.5,0,10-4.5,10-10v-56C202,188.5,197.5,184,192,184z M182,240
	h-24v-36h24V240z"/>
<path d="M232,260h44c5.5,0,10-4.5,10-10v-56c0-5.5-4.5-10-10-10h-44c-5.5,0-10,4.5-10,10v56C222,255.5,226.5,260,232,260z M242,204
	h24v36h-24V204z"/>
<path d="M108,88H64c-5.5,0-10,4.5-10,10v56c0,5.5,4.5,10,10,10h44c5.5,0,10-4.5,10-10V98C118,92.5,113.5,88,108,88z M98,144H74v-36
	h24V144z"/>
<path d="M192,88h-44c-5.5,0-10,4.5-10,10v56c0,5.5,4.5,10,10,10h44c5.5,0,10-4.5,10-10V98C202,92.5,197.5,88,192,88z M182,144h-24
	v-36h24V144z"/>
<path d="M232,164h44c5.5,0,10-4.5,10-10V98c0-5.5-4.5-10-10-10h-44c-5.5,0-10,4.5-10,10v56C222,159.5,226.5,164,232,164z M242,108
	h24v36h-24V108z"/>
<path d="M169.7,54c2.6,0,5.2-1.1,7.1-2.9s2.9-4.4,2.9-7.1s-1.1-5.2-2.9-7.1c-1.9-1.9-4.4-2.9-7.1-2.9c-2.6,0-5.2,1.1-7.1,2.9
	c-1.9,1.9-2.9,4.4-2.9,7.1s1.1,5.2,2.9,7.1C164.5,52.9,167,54,169.7,54z"/>
</svg>
