<svg id="Capa_1" enable-background="new 0 0 512 512" height="512" viewBox="0 0 512 512" width="512" xmlns="http://www.w3.org/2000/svg"><g><g><g><g><g><g><g><g><g><g><g><path d="m415.551 35.326h-319.102c-13.802 0-24.991 11.189-24.991 24.991v419.192c0 13.802 11.189 24.991 24.991 24.991h319.102c13.802 0 24.991-11.189 24.991-24.991v-419.192c0-13.802-11.189-24.991-24.991-24.991z" fill="#f8e8bb"/><path d="m415.551 35.326h-27.704v469.174h27.704c13.802 0 24.991-11.189 24.991-24.991v-419.192c0-13.802-11.189-24.991-24.991-24.991z" fill="#ecd393"/><path d="m320.851 63.152h-129.702c-8.206 0-14.858-6.652-14.858-14.858v-25.936c0-8.206 6.652-14.858 14.858-14.858h129.703c8.206 0 14.858 6.652 14.858 14.858v25.936c-.001 8.206-6.653 14.858-14.859 14.858z" fill="#676e84"/><path d="m320.851 7.5h-37.837v55.652h37.837c8.206 0 14.858-6.652 14.858-14.858v-25.936c0-8.206-6.652-14.858-14.858-14.858z" fill="#4a4e67"/></g></g></g></g></g></g></g></g><g><g fill="#759ce7"><path d="m162.917 173.528h-33.333c-6.979 0-12.636-5.657-12.636-12.636v-33.332c0-6.979 5.657-12.636 12.636-12.636h33.333c6.979 0 12.636 5.657 12.636 12.636v33.333c0 6.978-5.657 12.635-12.636 12.635z"/><path d="m162.917 299.215h-33.333c-6.979 0-12.636-5.657-12.636-12.636v-33.333c0-6.979 5.657-12.636 12.636-12.636h33.333c6.979 0 12.636 5.657 12.636 12.636v33.333c0 6.979-5.657 12.636-12.636 12.636z"/><path d="m162.917 424.902h-33.333c-6.979 0-12.636-5.657-12.636-12.636v-33.333c0-6.979 5.657-12.636 12.636-12.636h33.333c6.979 0 12.636 5.657 12.636 12.636v33.333c0 6.979-5.657 12.636-12.636 12.636z"/></g></g></g></g><g><g><g><g><g><path d="m313.604 170.975h-81.447c-4.142 0-7.5-3.357-7.5-7.5s3.358-7.5 7.5-7.5h81.447c4.142 0 7.5 3.357 7.5 7.5s-3.357 7.5-7.5 7.5z"/></g><g><path d="m395.052 132.478h-162.895c-4.142 0-7.5-3.357-7.5-7.5s3.358-7.5 7.5-7.5h162.895c4.142 0 7.5 3.357 7.5 7.5s-3.358 7.5-7.5 7.5z"/></g></g><g><g><path d="m313.604 296.662h-81.447c-4.142 0-7.5-3.357-7.5-7.5s3.358-7.5 7.5-7.5h81.447c4.142 0 7.5 3.357 7.5 7.5s-3.357 7.5-7.5 7.5z"/></g><g><path d="m395.052 258.164h-162.895c-4.142 0-7.5-3.357-7.5-7.5s3.358-7.5 7.5-7.5h162.895c4.142 0 7.5 3.357 7.5 7.5s-3.358 7.5-7.5 7.5z"/></g></g><g><g><path d="m313.604 422.349h-81.447c-4.142 0-7.5-3.357-7.5-7.5s3.358-7.5 7.5-7.5h81.447c4.142 0 7.5 3.357 7.5 7.5s-3.357 7.5-7.5 7.5z"/></g><g><path d="m395.052 383.851h-162.895c-4.142 0-7.5-3.357-7.5-7.5s3.358-7.5 7.5-7.5h162.895c4.142 0 7.5 3.357 7.5 7.5s-3.358 7.5-7.5 7.5z"/></g></g></g></g><g><path d="m320.852 70.651h-129.704c-12.328 0-22.358-10.029-22.358-22.357v-25.936c.001-12.328 10.03-22.358 22.358-22.358h129.703c12.328 0 22.358 10.03 22.358 22.358v25.936c0 12.328-10.029 22.357-22.357 22.357zm-129.704-55.651c-4.057 0-7.358 3.301-7.358 7.358v25.936c0 4.057 3.301 7.357 7.358 7.357h129.703c4.057 0 7.358-3.301 7.358-7.357v-25.936c0-4.058-3.301-7.358-7.358-7.358z"/></g><g><g><path d="m162.917 181.028h-33.333c-11.103 0-20.136-9.033-20.136-20.136v-33.332c0-11.103 9.033-20.136 20.136-20.136h33.333c11.103 0 20.136 9.033 20.136 20.136v33.333c0 11.102-9.033 20.135-20.136 20.135zm-33.333-58.604c-2.832 0-5.136 2.304-5.136 5.136v33.333c0 2.832 2.304 5.136 5.136 5.136h33.333c2.832 0 5.136-2.304 5.136-5.136v-33.333c0-2.832-2.304-5.136-5.136-5.136z"/></g><g><path d="m162.917 306.715h-33.333c-11.103 0-20.136-9.033-20.136-20.136v-33.333c0-11.103 9.033-20.136 20.136-20.136h33.333c11.103 0 20.136 9.033 20.136 20.136v33.333c0 11.103-9.033 20.136-20.136 20.136zm-33.333-58.605c-2.832 0-5.136 2.304-5.136 5.136v33.333c0 2.832 2.304 5.136 5.136 5.136h33.333c2.832 0 5.136-2.304 5.136-5.136v-33.333c0-2.832-2.304-5.136-5.136-5.136z"/></g><g><path d="m162.917 432.402h-33.333c-11.103 0-20.136-9.033-20.136-20.137v-33.332c0-11.104 9.033-20.137 20.136-20.137h33.333c11.103 0 20.136 9.033 20.136 20.137v33.332c0 11.104-9.033 20.137-20.136 20.137zm-33.333-58.605c-2.832 0-5.136 2.305-5.136 5.137v33.332c0 2.832 2.304 5.137 5.136 5.137h33.333c2.832 0 5.136-2.305 5.136-5.137v-33.332c0-2.832-2.304-5.137-5.136-5.137z"/></g></g><g><path d="m415.551 512h-319.102c-17.916 0-32.491-14.575-32.491-32.491v-419.193c0-17.915 14.576-32.49 32.491-32.49h44.945c4.142 0 7.5 3.357 7.5 7.5s-3.358 7.5-7.5 7.5h-44.945c-9.645 0-17.491 7.846-17.491 17.49v419.192c0 9.645 7.847 17.491 17.491 17.491h319.102c9.645 0 17.491-7.847 17.491-17.491v-419.192c0-9.645-7.847-17.49-17.491-17.49h-44.945c-4.142 0-7.5-3.357-7.5-7.5s3.358-7.5 7.5-7.5h44.945c17.916 0 32.491 14.575 32.491 32.49v419.192c0 17.917-14.576 32.492-32.491 32.492z"/></g></g></g></svg>