<?xml version="1.0" encoding="utf-8"?>
<!-- Generator: Adobe Illustrator 19.0.0, SVG Export Plug-In . SVG Version: 6.00 Build 0)  -->
<svg version="1.1" id="圖層_1" xmlns="http://www.w3.org/2000/svg" xmlns:xlink="http://www.w3.org/1999/xlink" x="0px" y="0px"
	 viewBox="0 0 500 512" style="enable-background:new 0 0 500 512;" xml:space="preserve">
<style type="text/css">
	.st0{fill:#F8E8BB;}
	.st1{fill:#676E84;}
	.st2{fill:#A8BFCF;}
</style>
<g id="XMLID_28_">
	<g id="XMLID_66_">
		<g id="XMLID_67_">
			<g id="XMLID_80_">
				<path id="XMLID_84_" class="st0" d="M391.6,35.3H72.4c-13.8,0-25,11.2-25,25v419.2c0,13.8,11.2,25,25,25h319.1
					c13.8,0,25-11.2,25-25V60.3C416.5,46.5,405.4,35.3,391.6,35.3L391.6,35.3z"/>
				<path id="XMLID_82_" class="st1" d="M296.9,63.2H167.1c-8.2,0-14.9-6.7-14.9-14.9V22.4c0-8.2,6.7-14.9,14.9-14.9h129.7
					c8.2,0,14.9,6.7,14.9,14.9v25.9C311.7,56.5,305.1,63.2,296.9,63.2z"/>
			</g>
			<g id="XMLID_68_">
				<g id="XMLID_69_">
					<path id="XMLID_72_" class="st2" d="M138.9,173.5h-33.3c-7,0-12.6-5.7-12.6-12.6v-33.3c0-7,5.7-12.6,12.6-12.6h33.3
						c7,0,12.6,5.7,12.6,12.6v33.3C151.6,167.9,145.9,173.5,138.9,173.5L138.9,173.5z"/>
					<path id="XMLID_71_" class="st2" d="M138.9,299.2h-33.3c-7,0-12.6-5.7-12.6-12.6v-33.3c0-7,5.7-12.6,12.6-12.6h33.3
						c7,0,12.6,5.7,12.6,12.6v33.3C151.6,293.6,145.9,299.2,138.9,299.2L138.9,299.2z"/>
					<path id="XMLID_70_" class="st2" d="M138.9,424.9h-33.3c-7,0-12.6-5.7-12.6-12.6v-33.3c0-7,5.7-12.6,12.6-12.6h33.3
						c7,0,12.6,5.7,12.6,12.6v33.3C151.6,419.2,145.9,424.9,138.9,424.9L138.9,424.9z"/>
				</g>
			</g>
		</g>
	</g>
	<g id="XMLID_29_">
		<g id="XMLID_49_">
			<g id="XMLID_50_">
				<g id="XMLID_61_">
					<g id="XMLID_64_">
						<path id="XMLID_65_" d="M289.6,171h-81.4c-4.1,0-7.5-3.4-7.5-7.5s3.4-7.5,7.5-7.5h81.4c4.1,0,7.5,3.4,7.5,7.5
							S293.7,171,289.6,171z"/>
					</g>
					<g id="XMLID_62_">
						<path id="XMLID_63_" d="M371.1,132.5H208.2c-4.1,0-7.5-3.4-7.5-7.5s3.4-7.5,7.5-7.5h162.9c4.1,0,7.5,3.4,7.5,7.5
							C378.6,129.1,375.2,132.5,371.1,132.5z"/>
					</g>
				</g>
				<g id="XMLID_56_">
					<g id="XMLID_59_">
						<path id="XMLID_60_" d="M289.6,296.7h-81.4c-4.1,0-7.5-3.4-7.5-7.5s3.4-7.5,7.5-7.5h81.4c4.1,0,7.5,3.4,7.5,7.5
							S293.7,296.7,289.6,296.7z"/>
					</g>
					<g id="XMLID_57_">
						<path id="XMLID_58_" d="M371.1,258.2H208.2c-4.1,0-7.5-3.4-7.5-7.5s3.4-7.5,7.5-7.5h162.9c4.1,0,7.5,3.4,7.5,7.5
							S375.2,258.2,371.1,258.2z"/>
					</g>
				</g>
				<g id="XMLID_51_">
					<g id="XMLID_54_">
						<path id="XMLID_55_" d="M289.6,422.3h-81.4c-4.1,0-7.5-3.4-7.5-7.5s3.4-7.5,7.5-7.5h81.4c4.1,0,7.5,3.4,7.5,7.5
							S293.7,422.3,289.6,422.3z"/>
					</g>
					<g id="XMLID_52_">
						<path id="XMLID_53_" d="M371.1,383.9H208.2c-4.1,0-7.5-3.4-7.5-7.5s3.4-7.5,7.5-7.5h162.9c4.1,0,7.5,3.4,7.5,7.5
							S375.2,383.9,371.1,383.9z"/>
					</g>
				</g>
			</g>
		</g>
		<g id="XMLID_45_">
			<path id="XMLID_46_" d="M296.9,70.7H167.1c-12.3,0-22.4-10-22.4-22.4V22.4c0-12.3,10-22.4,22.4-22.4h129.7
				c12.3,0,22.4,10,22.4,22.4v25.9C319.2,60.6,309.2,70.7,296.9,70.7L296.9,70.7z M167.1,15c-4.1,0-7.4,3.3-7.4,7.4v25.9
				c0,4.1,3.3,7.4,7.4,7.4h129.7c4.1,0,7.4-3.3,7.4-7.4V22.4c0-4.1-3.3-7.4-7.4-7.4L167.1,15z"/>
		</g>
		<g id="XMLID_32_">
			<g id="XMLID_41_">
				<path id="XMLID_42_" d="M138.9,181h-33.3c-11.1,0-20.1-9-20.1-20.1v-33.3c0-11.1,9-20.1,20.1-20.1h33.3c11.1,0,20.1,9,20.1,20.1
					v33.3C159.1,172,150,181,138.9,181L138.9,181z M105.6,122.4c-2.8,0-5.1,2.3-5.1,5.1v33.3c0,2.8,2.3,5.1,5.1,5.1h33.3
					c2.8,0,5.1-2.3,5.1-5.1v-33.3c0-2.8-2.3-5.1-5.1-5.1L105.6,122.4z"/>
			</g>
			<g id="XMLID_37_">
				<path id="XMLID_38_" d="M138.9,306.7h-33.3c-11.1,0-20.1-9-20.1-20.1v-33.3c0-11.1,9-20.1,20.1-20.1h33.3
					c11.1,0,20.1,9,20.1,20.1v33.3C159.1,297.7,150,306.7,138.9,306.7L138.9,306.7z M105.6,248.1c-2.8,0-5.1,2.3-5.1,5.1v33.3
					c0,2.8,2.3,5.1,5.1,5.1h33.3c2.8,0,5.1-2.3,5.1-5.1v-33.3c0-2.8-2.3-5.1-5.1-5.1H105.6z"/>
			</g>
			<g id="XMLID_33_">
				<path id="XMLID_34_" d="M138.9,432.4h-33.3c-11.1,0-20.1-9-20.1-20.1v-33.3c0-11.1,9-20.1,20.1-20.1h33.3
					c11.1,0,20.1,9,20.1,20.1v33.3C159.1,423.4,150,432.4,138.9,432.4L138.9,432.4z M105.6,373.8c-2.8,0-5.1,2.3-5.1,5.1v33.3
					c0,2.8,2.3,5.1,5.1,5.1h33.3c2.8,0,5.1-2.3,5.1-5.1v-33.3c0-2.8-2.3-5.1-5.1-5.1H105.6z"/>
			</g>
		</g>
		<g id="XMLID_30_">
			<path id="XMLID_31_" d="M391.6,512H72.4C54.5,512,40,497.4,40,479.5V60.3c0-17.9,14.6-32.5,32.5-32.5h44.9c4.1,0,7.5,3.4,7.5,7.5
				s-3.4,7.5-7.5,7.5H72.4c-9.6,0-17.5,7.8-17.5,17.5v419.2c0,9.6,7.8,17.5,17.5,17.5h319.1c9.6,0,17.5-7.8,17.5-17.5V60.3
				c0-9.6-7.8-17.5-17.5-17.5h-44.9c-4.1,0-7.5-3.4-7.5-7.5c0-4.1,3.4-7.5,7.5-7.5h44.9c17.9,0,32.5,14.6,32.5,32.5v419.2
				C424,497.4,409.5,512,391.6,512z"/>
		</g>
	</g>
</g>
</svg>
