<?xml version="1.0" encoding="utf-8"?>
<!-- Generator: Adobe Illustrator 19.0.0, SVG Export Plug-In . SVG Version: 6.00 Build 0)  -->
<svg version="1.1" id="圖層_1" xmlns="http://www.w3.org/2000/svg" xmlns:xlink="http://www.w3.org/1999/xlink" x="0px" y="0px"
	 viewBox="6 -6 512 512" style="enable-background:new 6 -6 512 512;" xml:space="preserve">
<style type="text/css">
	.st0{fill:#E38E5C;}
</style>
<path class="st0" d="M375.2,168.8c7.8,7.8,7.8,20.5,0,28.3L241,331.2c-7.8,7.8-20.5,7.8-28.3,0l-63.9-63.9c-7.8-7.8-7.8-20.5,0-28.3
	c7.8-7.8,20.5-7.8,28.3,0l49.7,49.7l120-120C354.7,161,367.4,161,375.2,168.8z M518,250c0,141.5-114.5,256-256,256
	C120.5,506,6,391.5,6,250C6,108.5,120.5-6,262-6C403.5-6,518,108.5,518,250z M478,250c0-119.4-96.6-216-216-216
	C142.6,34,46,130.6,46,250c0,119.4,96.6,216,216,216C381.4,466,478,369.4,478,250z"/>
</svg>
