<?xml version="1.0" encoding="iso-8859-1"?>
<!-- Generator: Adobe Illustrator 19.0.0, SVG Export Plug-In . SVG Version: 6.00 Build 0)  -->
<svg version="1.1" id="Capa_1" xmlns="http://www.w3.org/2000/svg" xmlns:xlink="http://www.w3.org/1999/xlink" x="0px" y="0px"
	 viewBox="0 0 512 512" style="enable-background:new 0 0 512 512;" xml:space="preserve">
<path style="fill:#303C42;" d="M510.047,239.525l0.161-0.108l-40.875-61.313v-71.438c0-23.531-19.146-42.667-42.667-42.667H85.333
	c-23.521,0-42.667,19.135-42.667,42.667v71.438L1.792,239.417l0.161,0.108C0.82,241.219,0,243.139,0,245.333v160
	C0,428.865,19.146,448,42.667,448h426.667C492.854,448,512,428.865,512,405.333v-160C512,243.139,511.18,241.219,510.047,239.525z"
	/>
<polygon style="fill:#546E7A;" points="481.402,234.667 469.333,234.667 469.333,216.563 "/>
<path style="fill:#FAFAFA;" d="M64,106.667c0-4.68,1.819-8.785,4.384-12.307l164.512,133.443c6.938,4.49,14.917,6.865,23.104,6.865
	c7.875,0,15.583-2.198,22.333-6.375c0.604-0.323,1.188-0.708,1.75-1.156L443.617,94.363c2.564,3.521,4.383,7.625,4.383,12.303v128
	h-42.667c-23.521,0-42.667,19.135-42.667,42.667c0,11.76-9.563,21.333-21.333,21.333H170.667c-11.771,0-21.333-9.573-21.333-21.333
	c0-23.531-19.146-42.667-42.667-42.667H64V106.667z"/>
<path style="fill:#FFFFFF;" d="M91.125,85.333h329.758L267.333,210.01c-6.896,4.385-16.854,3.688-21.896,0.563L91.125,85.333z"/>
<g>
	<polygon style="fill:#546E7A;" points="42.667,234.667 30.598,234.667 42.667,216.563 	"/>
	<path style="fill:#546E7A;" d="M490.667,405.333c0,11.76-9.563,21.333-21.333,21.333H42.667c-11.771,0-21.333-9.573-21.333-21.333
		V256h85.333c11.771,0,21.333,9.573,21.333,21.333C128,300.865,147.146,320,170.667,320h170.667
		C364.854,320,384,300.865,384,277.333c0-11.76,9.563-21.333,21.333-21.333h85.333V405.333z"/>
</g>
<linearGradient id="SVGID_1_" gradientUnits="userSpaceOnUse" x1="-39.1" y1="646.4585" x2="-26.9151" y2="634.2725" gradientTransform="matrix(21.3333 0 0 -21.3333 996.3334 13791.667)">
	<stop  offset="0" style="stop-color:#000000;stop-opacity:0.1"/>
	<stop  offset="1" style="stop-color:#000000;stop-opacity:0"/>
</linearGradient>
<path style="fill:url(#SVGID_1_);" d="M341.333,298.667c11.771,0,21.333-9.573,21.333-21.333c0-23.531,19.146-42.667,42.667-42.667
	H448v-128c0-4.678-1.819-8.783-4.383-12.303L280.083,227.135c-0.563,0.448-1.146,0.833-1.75,1.156
	c-6.75,4.177-14.458,6.375-22.333,6.375c-8.188,0-16.167-2.375-23.104-6.865L68.384,94.359l204.309,204.307H341.333z"/>
<polygon style="opacity:0.15;enable-background:new    ;" points="481.402,234.667 469.333,234.667 469.333,216.563 "/>
<polygon style="opacity:0.1;enable-background:new    ;" points="42.667,234.667 30.598,234.667 42.667,216.563 "/>
<linearGradient id="SVGID_2_" gradientUnits="userSpaceOnUse" x1="-45.9465" y1="639.2614" x2="-22.1743" y2="628.1752" gradientTransform="matrix(21.3333 0 0 -21.3333 996.3334 13791.667)">
	<stop  offset="0" style="stop-color:#FFFFFF;stop-opacity:0.2"/>
	<stop  offset="1" style="stop-color:#FFFFFF;stop-opacity:0"/>
</linearGradient>
<path style="fill:url(#SVGID_2_);" d="M510.047,239.525l0.161-0.108l-40.875-61.313v-71.438c0-23.531-19.146-42.667-42.667-42.667
	H85.333c-23.521,0-42.667,19.135-42.667,42.667v71.438L1.792,239.417l0.161,0.108C0.82,241.219,0,243.139,0,245.333v160
	C0,428.865,19.146,448,42.667,448h426.667C492.854,448,512,428.865,512,405.333v-160C512,243.139,511.18,241.219,510.047,239.525z"
	/>
<g>
</g>
<g>
</g>
<g>
</g>
<g>
</g>
<g>
</g>
<g>
</g>
<g>
</g>
<g>
</g>
<g>
</g>
<g>
</g>
<g>
</g>
<g>
</g>
<g>
</g>
<g>
</g>
<g>
</g>
</svg>
