<?xml version="1.0" encoding="iso-8859-1"?>
<!-- Generator: Adobe Illustrator 19.0.0, SVG Export Plug-In . SVG Version: 6.00 Build 0)  -->
<svg version="1.1" id="Capa_1" xmlns="http://www.w3.org/2000/svg" xmlns:xlink="http://www.w3.org/1999/xlink" x="0px" y="0px"
	 viewBox="0 0 512 512" style="enable-background:new 0 0 512 512;" xml:space="preserve">
<path style="fill:#303C42;" d="M510.216,239.776l0.159-0.099L403.708,69.01c-1.938-3.115-5.354-5.01-9.042-5.01H117.333
	c-3.688,0-7.104,1.896-9.042,5.01L1.625,239.677l0.159,0.099C0.753,241.418,0,243.249,0,245.333v160
	C0,428.865,19.146,448,42.667,448h426.667C492.854,448,512,428.865,512,405.333v-160C512,243.249,511.247,241.418,510.216,239.776z"
	/>
<path style="fill:#657C87;" d="M123.25,85.333h265.5l93.34,149.333h-76.757c-23.521,0-42.667,19.135-42.667,42.667
	c0,11.76-9.563,21.333-21.333,21.333H170.667c-11.771,0-21.333-9.573-21.333-21.333c0-23.531-19.146-42.667-42.667-42.667H29.91
	L123.25,85.333z"/>
<path style="fill:#546E7A;" d="M490.667,405.333c0,11.76-9.563,21.333-21.333,21.333H42.667c-11.771,0-21.333-9.573-21.333-21.333
	V256h85.333c11.771,0,21.333,9.573,21.333,21.333C128,300.865,147.146,320,170.667,320h170.667C364.854,320,384,300.865,384,277.333
	c0-11.76,9.563-21.333,21.333-21.333h85.333V405.333z"/>
<linearGradient id="SVGID_1_" gradientUnits="userSpaceOnUse" x1="-38.8218" y1="631.8649" x2="-30.582" y2="640.1056" gradientTransform="matrix(21.3333 0 0 -21.3333 996.3334 13791.667)">
	<stop  offset="0" style="stop-color:#000000;stop-opacity:0"/>
	<stop  offset="1" style="stop-color:#000000;stop-opacity:0.1"/>
</linearGradient>
<path style="fill:url(#SVGID_1_);" d="M123.25,180.957l-32.34,53.71h15.757c23.521,0,42.667,19.135,42.667,42.667
	c0,11.76,9.563,21.333,21.333,21.333h170.667c11.771,0,21.333-9.573,21.333-21.333c0-23.531,19.146-42.667,42.667-42.667h15.806
	l-32.34-53.71H123.25z"/>
<polygon style="opacity:0.2;enable-background:new    ;" points="90.91,234.667 123.25,180.957 123.25,85.333 29.91,234.667 "/>
<g>
	<polygon style="opacity:0.08;fill:#FFFFFF;enable-background:new    ;" points="482.09,234.667 388.799,85.413 388.799,180.957 
		421.139,234.667 	"/>
	<polygon style="opacity:0.03;fill:#FFFFFF;enable-background:new    ;" points="388.799,180.957 388.799,85.413 388.75,85.333 
		123.25,85.333 123.25,180.957 	"/>
</g>
<linearGradient id="SVGID_2_" gradientUnits="userSpaceOnUse" x1="-45.1323" y1="638.4545" x2="-22.3379" y2="627.8243" gradientTransform="matrix(21.3333 0 0 -21.3333 996.3334 13791.667)">
	<stop  offset="0" style="stop-color:#FFFFFF;stop-opacity:0.2"/>
	<stop  offset="1" style="stop-color:#FFFFFF;stop-opacity:0"/>
</linearGradient>
<path style="fill:url(#SVGID_2_);" d="M510.216,239.776l0.159-0.099L403.708,69.01c-1.938-3.115-5.354-5.01-9.042-5.01H117.333
	c-3.688,0-7.104,1.896-9.042,5.01L1.625,239.677l0.159,0.099C0.753,241.418,0,243.249,0,245.333v160
	C0,428.865,19.146,448,42.667,448h426.667C492.854,448,512,428.865,512,405.333v-160C512,243.249,511.247,241.418,510.216,239.776z"
	/>
<g>
</g>
<g>
</g>
<g>
</g>
<g>
</g>
<g>
</g>
<g>
</g>
<g>
</g>
<g>
</g>
<g>
</g>
<g>
</g>
<g>
</g>
<g>
</g>
<g>
</g>
<g>
</g>
<g>
</g>
</svg>
