<?xml version="1.0" encoding="utf-8"?>
<!-- Generator: Adobe Illustrator 19.0.0, SVG Export Plug-In . SVG Version: 6.00 Build 0)  -->
<svg version="1.1" id="Layer_1" xmlns="http://www.w3.org/2000/svg" xmlns:xlink="http://www.w3.org/1999/xlink" x="0px" y="0px"
	 viewBox="6 -6 512 512" style="enable-background:new 6 -6 512 512;" xml:space="preserve">
<style type="text/css">
	.st0{fill:#A7BDCD;}
	.st1{fill:#FFD89E;}
	.st2{fill:#FFFFFF;}
</style>
<g>
	<g>
		<path class="st0" d="M391.5,94V54c0-5.5-4.5-10-10-10h-70c0-22.1-17.9-40-40-40s-40,17.9-40,40h-70c-5.5,0-10,4.5-10,10v40
			c0,5.5,4.5,10,10,10h220C387,104,391.5,99.5,391.5,94z"/>
		<path class="st1" d="M151.5,94V54h-50c-11,0-20,9-20,20v402c0,11,9,20,20,20h340c11,0,20-9,20-20V74c0-11-9-20-20-20l-50,0v40h30
			v362h-300V94H151.5z"/>
		<path class="st2" d="M161.5,104c-5.5,0-10-4.5-10-10h-30v362h300V94h-30c0,5.5-4.5,10-10,10H161.5z"/>
	</g>
	<g>
		<path d="M432,44h-42.7c-3.5-6-9.9-10-17.3-10h-61c-4.6-22.8-24.8-40-49-40s-44.4,17.2-49,40h-61c-7.4,0-13.8,4-17.3,10H92
			c-16.5,0-30,13.5-30,30v402c0,16.5,13.5,30,30,30h340c16.5,0,30-13.5,30-30V74C462,57.5,448.5,44,432,44L432,44z M217,94h-65V54
			h70c5.5,0,10-4.5,10-10c0-16.5,13.5-30,30-30s30,13.5,30,30c0,5.5,4.5,10,10,10h70v40h-65c-5.5,0-10,4.5-10,10s4.5,10,10,10h65
			c7.4,0,13.8-4,17.3-10H402v342H122V104h12.7c3.5,6,9.9,10,17.3,10h65c5.5,0,10-4.5,10-10S222.5,94,217,94L217,94z M442,476
			c0,5.5-4.5,10-10,10H92c-5.5,0-10-4.5-10-10V74c0-5.5,4.5-10,10-10h40v20h-20c-5.5,0-10,4.5-10,10v362c0,5.5,4.5,10,10,10h300
			c5.5,0,10-4.5,10-10V94c0-5.5-4.5-10-10-10h-20V64h40c5.5,0,10,4.5,10,10V476z"/>
		<path d="M262,54c5.5,0,10-4.5,10-10s-4.5-10-10-10h0c-5.5,0-10,4.5-10,10S256.5,54,262,54z"/>
		<g>
			<path d="M194.9,139.6l-19.6,19.6l-6.3-6.3c-3.9-3.9-10.2-3.9-14.1,0c-3.9,3.9-3.9,10.2,0,14.1l13.3,13.3c2,2,4.5,2.9,7.1,2.9
				s5.1-1,7.1-2.9l26.7-26.7c3.9-3.9,3.9-10.2,0-14.1C205.2,135.7,198.8,135.7,194.9,139.6L194.9,139.6z"/>
			<path d="M242,170h120c5.5,0,10-4.5,10-10s-4.5-10-10-10H242c-5.5,0-10,4.5-10,10S236.5,170,242,170z"/>
		</g>
		<g>
			<path d="M194.9,216.3l-19.6,19.6l-6.3-6.3c-3.9-3.9-10.2-3.9-14.1,0c-3.9,3.9-3.9,10.2,0,14.1l13.3,13.3c1.9,1.9,4.4,2.9,7.1,2.9
				s5.2-1.1,7.1-2.9l26.7-26.7c3.9-3.9,3.9-10.2,0-14.1C205.2,212.4,198.8,212.4,194.9,216.3L194.9,216.3z"/>
			<path d="M242,246.7h120c5.5,0,10-4.5,10-10s-4.5-10-10-10H242c-5.5,0-10,4.5-10,10S236.5,246.7,242,246.7z"/>
		</g>
		<g>
			<path d="M194.9,292.9l-19.6,19.6l-6.3-6.3c-3.9-3.9-10.2-3.9-14.1,0c-3.9,3.9-3.9,10.2,0,14.1l13.3,13.3c1.9,1.9,4.4,2.9,7.1,2.9
				s5.2-1.1,7.1-2.9l26.7-26.7c3.9-3.9,3.9-10.2,0-14.1C205.2,289,198.8,289,194.9,292.9L194.9,292.9z"/>
			<path d="M242,323.3h120c5.5,0,10-4.5,10-10s-4.5-10-10-10H242c-5.5,0-10,4.5-10,10S236.5,323.3,242,323.3z"/>
		</g>
		<g>
			<path d="M194.9,369.6l-19.6,19.6l-6.3-6.3c-3.9-3.9-10.2-3.9-14.1,0c-3.9,3.9-3.9,10.2,0,14.1l13.3,13.3c1.9,1.9,4.4,2.9,7.1,2.9
				s5.2-1.1,7.1-2.9l26.7-26.7c3.9-3.9,3.9-10.2,0-14.1C205.2,365.7,198.8,365.7,194.9,369.6z"/>
			<path d="M242,400h120c5.5,0,10-4.5,10-10s-4.5-10-10-10H242c-5.5,0-10,4.5-10,10S236.5,400,242,400z"/>
		</g>
		<path d="M262,114c5.5,0,10-4.5,10-10s-4.5-10-10-10h0c-5.5,0-10,4.5-10,10S256.5,114,262,114z"/>
	</g>
</g>
</svg>
