<svg id="Layer_1" enable-background="new 0 0 512.001 512.001" height="512" viewBox="0 0 512.001 512.001" width="512" xmlns="http://www.w3.org/2000/svg"><g><g clip-rule="evenodd" fill-rule="evenodd"><path d="m385.454 100v-39.999c0-5.499-4.5-10-10-10h-69.999c0-22.092-17.909-40.001-40.001-40.001s-40.001 17.909-40.001 40.001h-69.999c-5.5 0-10 4.5-10 10v39.999c0 5.5 4.5 10 10 10h220.001c5.498 0 9.999-4.5 9.999-10z" fill="#a7bdcd"/><path d="m145.454 100v-40h-50c-11 0-20 9-20 20v402.002c0 11 9 20 20 20h340c11 0 20-9 20-20v-402.002c0-11-9-20-20-20l-50 .001v39.999h30v362.001h-300v-362.001z" fill="#ff5d7d"/><path d="m155.453 110c-5.5 0-10-4.5-10-10h-30v362.001h300v-362.001h-30c0 5.5-4.5 10-10 10z" fill="#fff"/></g><g><path d="m426 50h-42.707c-3.465-5.967-9.91-9.999-17.293-9.999h-61.004c-4.645-22.794-24.849-40.001-48.996-40.001s-44.351 17.207-48.997 40.001h-61.003c-7.383 0-13.828 4.032-17.293 9.999h-42.707c-16.542 0-30 13.458-30 30v402.002c0 16.541 13.458 29.999 30 29.999h340c16.542 0 30-13.458 30-29.999v-402.002c0-16.542-13.458-30-30-30zm-215.003 50h-64.997v-39.999h69.999c5.523 0 10-4.478 10-10 0-16.543 13.459-30.001 30.001-30.001s30.001 13.458 30.001 30.001c0 5.522 4.478 10 10 10h69.999v39.999h-65.003c-5.522 0-10 4.478-10 10s4.478 10 10 10h65.003c7.384 0 13.829-4.032 17.294-10h12.706v342.001h-280v-342.001h12.706c3.465 5.968 9.91 10 17.294 10h64.997c5.523 0 10-4.478 10-10s-4.477-10-10-10zm225.003 382.002c0 5.514-4.486 9.999-10 9.999h-340c-5.514 0-10-4.485-10-9.999v-402.002c0-5.514 4.486-10 10-10h40v20h-20c-5.523 0-10 4.478-10 10v362.001c0 5.522 4.477 10 10 10h300c5.522 0 10-4.478 10-10v-362.001c0-5.522-4.478-10-10-10h-20v-20h40c5.514 0 10 4.486 10 10z"/><path d="m256.004 60.001c5.523 0 10-4.478 10-10s-4.477-10-10-10h-.007c-5.523 0-9.996 4.478-9.996 10s4.48 10 10.003 10z"/><path d="m188.932 140.597-19.596 19.595-6.262-6.262c-3.905-3.904-10.237-3.904-14.143 0-3.905 3.905-3.905 10.237 0 14.143l13.333 13.333c1.953 1.953 4.512 2.929 7.071 2.929s5.119-.977 7.071-2.929l26.667-26.666c3.906-3.905 3.906-10.237 0-14.143-3.905-3.904-10.237-3.905-14.141 0z"/><path d="m236 171.001h120c5.522 0 10-4.478 10-10s-4.478-10-10-10h-120c-5.523 0-10 4.478-10 10s4.477 10 10 10z"/><path d="m188.932 200.597-19.596 19.595-6.262-6.262c-3.905-3.904-10.237-3.904-14.143 0-3.905 3.905-3.905 10.237 0 14.143l13.333 13.333c1.953 1.953 4.512 2.929 7.071 2.929s5.119-.977 7.071-2.929l26.667-26.666c3.906-3.905 3.906-10.237 0-14.143-3.905-3.904-10.237-3.904-14.141 0z"/><path d="m236 231.001h120c5.522 0 10-4.478 10-10s-4.478-10-10-10h-120c-5.523 0-10 4.478-10 10s4.477 10 10 10z"/><path d="m188.931 260.596-19.595 19.596-6.262-6.262c-3.905-3.904-10.237-3.904-14.143 0-3.905 3.905-3.905 10.237 0 14.143l13.333 13.333c1.875 1.875 4.419 2.929 7.071 2.929s5.196-1.054 7.071-2.929l26.667-26.667c3.905-3.905 3.905-10.237 0-14.143-3.905-3.905-10.237-3.905-14.142 0z"/><path d="m236 291.001h120c5.522 0 10-4.478 10-10s-4.478-10-10-10h-120c-5.523 0-10 4.478-10 10s4.477 10 10 10z"/><path d="m188.931 320.596-19.595 19.596-6.262-6.262c-3.905-3.904-10.237-3.904-14.143 0-3.905 3.905-3.905 10.237 0 14.143l13.333 13.333c1.875 1.875 4.419 2.929 7.071 2.929s5.196-1.054 7.071-2.929l26.667-26.667c3.905-3.905 3.905-10.237 0-14.143-3.905-3.905-10.237-3.905-14.142 0z"/><path d="m236 351.001h120c5.522 0 10-4.478 10-10s-4.478-10-10-10h-120c-5.523 0-10 4.478-10 10s4.477 10 10 10z"/><path d="m188.931 380.596-19.595 19.596-6.262-6.263c-3.904-3.903-10.236-3.904-14.142 0-3.905 3.905-3.906 10.236 0 14.143l13.333 13.334c1.875 1.875 4.419 2.929 7.071 2.929s5.196-1.054 7.071-2.929l26.667-26.667c3.905-3.905 3.905-10.237 0-14.143-3.906-3.905-10.238-3.905-14.143 0z"/><path d="m236 411h120c5.522 0 10-4.478 10-10s-4.478-10-10-10h-120c-5.523 0-10 4.478-10 10s4.477 10 10 10z"/><path d="m256 120c5.523 0 10-4.478 10-10s-4.477-10-10-10h-.007c-5.523 0-9.996 4.478-9.996 10s4.481 10 10.003 10z"/></g></g></svg>