<svg id="Capa_1" enable-background="new 0 0 511.999 511.999" height="512" viewBox="0 0 511.999 511.999" width="512" xmlns="http://www.w3.org/2000/svg"><g><g><g><g><g><g><path d="m407.82 249.966h-102.796c-23.863 0-43.208-19.345-43.208-43.208v-63.517c0-52.249 42.356-94.605 94.605-94.605 52.249 0 94.605 42.356 94.605 94.605v63.517c.001 23.863-19.343 43.208-43.206 43.208z" fill="#fca62f"/></g><g><path d="m451.026 143.239v63.523c0 23.856-19.345 43.201-43.21 43.201h-26.87c23.866 0 43.21-19.344 43.21-43.201v-63.523c0-26.122-10.595-49.777-27.711-66.893-14.129-14.129-32.707-23.811-53.458-26.761 4.393-.63 8.878-.95 13.435-.95 26.121 0 49.777 10.595 66.893 27.711 17.125 17.117 27.711 40.772 27.711 66.893z" fill="#fb9927"/></g><g><g><path d="m504.497 463.418h-296.15l26.179-136.639 121.897-39.268 86.577 27.89c21.777 7.015 37.995 25.35 42.301 47.82z" fill="#bcea73"/><path d="m406.281 303.574c-1.845 25.922-23.465 46.375-49.859 46.375s-48.014-20.453-49.859-46.375l49.859-16.06z" fill="#ffcec0"/><path d="m504.502 463.419h-29.583l-20.733-108.231c-4.028-21.016-17.691-38.68-36.561-47.959l25.373 8.174c21.783 7.014 37.995 25.345 42.306 47.822z" fill="#99d53b"/><path d="m219.848 403.388-11.501 60.03h296.15l-11.501-60.03z" fill="#edf9da"/><path d="m463.419 403.388 11.499 60.031h29.584l-11.503-60.031z" fill="#d2f0a2"/><path d="m328.691 244.235h55.463v68.033h-55.463z" fill="#ffcec0"/><path d="m384.153 244.235v41.961c-8.56 3.48-17.923 5.396-27.731 5.396s-19.172-1.915-27.731-5.396v-41.961z" fill="#fdb0a0"/></g></g><g fill="#fdb0a0"><path d="m437.176 201.899c10.852 0 19.649-8.797 19.649-19.649s-8.797-19.649-19.649-19.649h-13.022v39.298z"/><path d="m275.668 201.899c-10.852 0-19.649-8.797-19.649-19.649s8.797-19.649 19.649-19.649h13.022v39.298z"/></g><path d="m356.422 97.307c-40.615 0-73.54 32.925-73.54 73.54v27.385c0 37.629 32.925 72.597 73.541 72.597s73.541-34.967 73.541-72.597v-27.385c-.002-40.615-32.927-73.54-73.542-73.54z" fill="#ffcec0"/><path d="m429.955 170.521h-31.693c-26.432 0-47.859-21.427-47.859-47.859v-25.108c1.982-.164 3.991-.247 6.019-.247 40.506.001 73.359 32.753 73.533 73.214z" fill="#fdb0a0"/><g><path d="m434.099 152.576h-35.835c-26.434 0-47.863-21.429-47.863-47.863v-15.498h26.254c31.726 0 57.445 25.719 57.445 57.445v5.916z" fill="#fca62f"/><path d="m434.101 146.655v5.918h-9.946v-9.334c0-13.673-2.904-26.66-8.119-38.397 11.124 10.468 18.065 25.337 18.065 41.813z" fill="#fb9927"/></g></g></g></g><g><g fill="#6c3328"><path d="m236.332 201.841c10.852 0 19.649-8.797 19.649-19.649s-8.797-19.649-19.649-19.649h-13.022v39.298z"/><path d="m74.824 201.841c-10.852 0-19.649-8.797-19.649-19.649s8.797-19.649 19.649-19.649h13.022v39.298z"/></g><g><g><g><g><g><path d="m303.654 463.361h-296.152l19.197-100.197c4.305-22.471 20.523-40.805 42.301-47.821l86.579-27.891 86.579 27.891c21.778 7.015 37.996 25.35 42.301 47.821z" fill="#20b69f"/><path d="m110.664 334.852-1.535-5.915c-1.9-7.324-9.378-11.721-16.701-9.821l-45.048 11.687c-7.783 2.019-12.455 9.965-10.436 17.748l4.913 18.939c1.951 7.52 9.628 12.034 17.148 10.083l23.847-6.187c7.52-1.951 12.034-9.628 10.083-17.148l-.543-2.091 9.56-2.48c6.497-1.685 10.398-8.318 8.712-14.815z" fill="#17998c"/><path d="m303.658 463.362h-29.583l-20.733-108.231c-4.028-21.025-17.701-38.689-36.579-47.969l25.391 8.184c21.783 7.014 37.995 25.345 42.306 47.822z" fill="#17998c"/><path d="m205.437 303.516c-1.845 25.922-23.465 46.376-49.859 46.376s-48.014-20.453-49.859-46.376l49.859-16.06z" fill="#873f30"/><path d="m127.846 244.177h55.463v68.034h-55.463z" fill="#873f30"/><path d="m183.31 244.177v41.961c-8.56 3.48-17.923 5.396-27.732 5.396-9.808 0-19.172-1.915-27.732-5.396v-41.961z" fill="#6c3328"/></g></g><path d="m155.578 92.681c-40.616 0-73.541 32.925-73.541 73.541v31.952c0 37.63 32.925 72.597 73.541 72.597s73.541-34.968 73.541-72.597v-31.952c0-40.616-32.925-73.541-73.541-73.541z" fill="#873f30"/><path d="m229.121 166.151c-1.26-.037-2.521-.173-3.763-.384-17.929-3.106-45.969-5.188-69.78-5.188s-51.851 2.082-69.78 5.188c-1.242.21-2.503.347-3.763.384.037-40.58 32.954-73.469 73.543-73.469s73.506 32.889 73.543 73.469z" fill="#6c3328"/></g></g></g><g><g><path d="m232.82 124.511c-.131-41.957-34.66-75.931-77.242-75.931s-77.112 33.974-77.242 75.931z" fill="#e01058"/><path d="m232.82 124.51h-27.73c-.11-37.292-27.41-68.273-63.377-74.693 4.494-.813 9.133-1.233 13.865-1.233 42.58-.001 77.114 33.966 77.242 75.926z" fill="#cf0e50"/></g><path d="m72.04 137.891c-.262 5.813 4.911 10.409 10.645 9.417 19.691-3.409 48.795-5.458 72.894-5.458s53.203 2.049 72.894 5.458c5.734.993 10.906-3.603 10.645-9.417l-.848-18.837c-.184-4.092-3.064-7.561-7.054-8.489-20.275-4.718-44.467-7.606-75.636-7.606s-55.362 2.887-75.636 7.606c-3.989.928-6.87 4.397-7.054 8.489z" fill="#fb1466"/><path d="m239.112 137.89c.265 5.818-4.905 10.412-10.64 9.417-4.192-.721-8.814-1.388-13.718-1.982 2.429-1.79 3.991-4.722 3.836-8.037l-.877-22.779c-.137-3.041-1.717-5.754-4.137-7.389 6.22.996 12.074 2.146 17.637 3.443 3.991.932 6.868 4.402 7.06 8.494z" fill="#e01058"/></g></g><g><path d="m77.501 301.343 8.027 30.939 16.425-4.261c6.497-1.685 10.397-8.318 8.711-14.815l-1.535-5.915c-1.9-7.324-9.377-11.721-16.701-9.821z" fill="#fdb0a0"/><path d="m36.945 326.904 4.913 18.939c1.951 7.52 9.628 12.034 17.148 10.083l23.847-6.187c7.52-1.951 12.034-9.628 10.083-17.148l-8.569-33.031-36.986 9.595c-7.783 2.021-12.456 9.967-10.436 17.749z" fill="#ffcec0"/></g></g><path d="m117.887 390.583h75.382v72.837h-75.382z" fill="#f8f3f1"/><path d="m117.887 390.583h75.382v28.034h-75.382z" fill="#fb1466"/><g><path d="m511.863 462.006-19.196-100.196c-4.823-25.171-22.973-45.69-47.367-53.548l-53.646-17.282v-21c6.574-3.281 12.762-7.494 18.412-12.572 26.922-1.18 48.462-23.443 48.462-50.651v-7.77c3.627-4.616 5.798-10.427 5.798-16.739s-2.171-12.123-5.798-16.739v-22.27c0-19.67-5.61-38.772-16.223-55.241-2.245-3.482-6.885-4.486-10.367-2.241-3.481 2.244-4.485 6.885-2.241 10.367 9.049 14.041 13.832 30.333 13.832 47.115v12.617c-2.039-.491-4.164-.758-6.352-.758h-.158c.283-.79.445-1.637.445-2.524 0-4.142-3.358-7.5-7.5-7.5h-31.698c-22.256 0-40.363-18.107-40.363-40.363v-11.359c0-4.142-3.358-7.5-7.5-7.5-3.268 0-6.041 2.094-7.068 5.012-33.765 5.463-59.969 31.431-66.414 64.237h-1.251c-2.187 0-4.313.267-6.352.758v-12.617c0-48.03 39.075-87.105 87.105-87.105 18.371 0 35.939 5.653 50.806 16.349 3.363 2.419 8.049 1.654 10.468-1.708s1.654-8.049-1.708-10.468c-17.434-12.542-38.032-19.172-59.565-19.172-56.301 0-102.105 45.804-102.105 102.105v18.637c-4.793-4.248-11.091-6.836-17.984-6.836h-.485c-.051-.368-.106-.735-.161-1.102 1.917-.699 3.714-1.751 5.295-3.144 3.805-3.352 5.856-8.178 5.628-13.243l-.848-18.837c-.248-5.524-3.243-10.455-7.741-13.31-4.269-17.796-14.491-33.926-28.937-45.55-15.048-12.108-34.049-18.777-53.5-18.777-19.456 0-38.459 6.668-53.509 18.776-14.448 11.624-24.67 27.756-28.939 45.553-4.495 2.855-7.489 7.786-7.737 13.308l-.848 18.837c-.228 5.064 1.823 9.891 5.628 13.243 1.58 1.392 3.382 2.429 5.297 3.128-.057.372-.112.745-.164 1.118h-.485c-14.97 0-27.149 12.179-27.149 27.149s12.179 27.149 27.149 27.149h.578c1.113 7.211 3.297 14.318 6.548 21.231 1.278 2.717 3.976 4.311 6.792 4.311 1.069 0 2.155-.23 3.187-.715 3.749-1.763 5.358-6.23 3.596-9.979-3.973-8.449-5.987-17.202-5.987-26.017v-31.952c0-4.239.426-8.458 1.222-12.588 18.274-2.602 43.273-4.284 64.819-4.284s46.546 1.682 64.82 4.284c.796 4.128 1.222 8.347 1.222 12.588v31.952c0 34.678-30.86 65.098-66.042 65.098-14.369 0-28.184-4.845-39.95-14.012-3.269-2.546-7.981-1.96-10.526 1.307-2.545 3.268-1.96 7.98 1.307 10.526 4.421 3.444 9.086 6.385 13.938 8.815v21.016l-10.928 3.52c-5.072-4.207-12.022-6.01-18.874-4.234l-45.047 11.687c-11.773 3.054-18.867 15.118-15.813 26.891l1.417 5.463c-5.822 8.175-9.881 17.645-11.77 27.503l-19.203 100.197c-.779 4.068 1.887 7.998 5.955 8.777.477.091.951.135 1.419.135 3.526 0 6.669-2.499 7.358-6.09l19.197-100.197c.7-3.655 1.8-7.234 3.225-10.679 1.808 2.844 4.264 5.247 7.253 7.004 3.358 1.975 7.099 2.985 10.895 2.985 1.817 0 3.647-.232 5.453-.7l23.846-6.185c5.576-1.447 10.255-4.978 13.175-9.944 1.993-3.39 2.978-7.173 2.959-11.006l2.966-.77c1.745-.453 3.384-1.144 4.905-2.021 10.693 15.063 27.971 24.133 46.838 24.133 26.622 0 49.787-18.601 55.905-44.05l28.373 9.14c19.176 6.178 33.444 22.307 37.234 42.093l19.197 100.197c.688 3.592 3.832 6.09 7.358 6.09.468 0 .943-.044 1.419-.135 4.068-.78 6.734-4.709 5.955-8.777l-9.783-51.062h122.159c4.142 0 7.5-3.358 7.5-7.5s-3.358-7.5-7.5-7.5h-125.032l-6.54-34.135c-2.898-15.126-10.613-28.567-21.6-38.595l30.293-9.758c6.119 25.448 29.283 44.049 55.905 44.049 26.632 0 49.786-18.598 55.904-44.05l28.374 9.14c19.176 6.177 33.443 22.306 37.234 42.093l5.988 31.255h-25.131c-4.142 0-7.5 3.358-7.5 7.5s3.358 7.5 7.5 7.5h28.005l10.334 53.94c.688 3.592 3.832 6.09 7.358 6.09.468 0 .943-.044 1.419-.135 4.07-.778 6.736-4.708 5.956-8.776zm-62.538-279.756c0 6.602-5.297 11.981-11.863 12.135v-23.537c0-.244-.008-.488-.01-.733 6.571.149 11.873 5.529 11.873 12.135zm-22.689 54.837c5.044-8.657 8.453-18.073 9.951-27.688h.59c2.169 0 4.277-.263 6.3-.746-.631 11.998-7.214 22.44-16.841 28.434zm-136.255-66.24c0-31.62 22.197-58.409 52.557-64.667.783 29.85 25.291 53.896 55.326 53.896h23.324c.58 3.545.874 7.154.874 10.771v27.385c0 34.678-30.86 65.097-66.041 65.097s-66.041-30.419-66.041-65.097v-27.385zm-14.713 38.552h.59c1.497 9.616 4.906 19.031 9.951 27.688-9.627-5.995-16.21-16.437-16.841-28.434 2.023.483 4.131.746 6.3.746zm-.287-38.552v23.537c-6.566-.154-11.863-5.532-11.863-12.135 0-6.608 5.306-11.99 11.88-12.135-.002.245-.017.488-.017.733zm-26.9 11.345c0 6.602-5.297 11.98-11.862 12.135v-24.27c6.566.155 11.862 5.533 11.862 12.135zm-34.942-62.545c-4.142 0-7.5 3.358-7.5 7.5v9.683c-4.501-.441-9.159-.829-13.908-1.16v-12.053c0-4.142-3.358-7.5-7.5-7.5s-7.5 3.358-7.5 7.5v11.212c-4.71-.2-9.414-.339-14.052-.412v-11.444c0-4.142-3.358-7.5-7.5-7.5s-7.5 3.358-7.5 7.5v11.444c-4.638.073-9.342.212-14.053.412v-11.212c0-4.142-3.358-7.5-7.5-7.5s-7.5 3.358-7.5 7.5v12.053c-4.749.332-9.408.72-13.908 1.16v-9.683c0-4.142-3.358-7.5-7.5-7.5s-7.5 3.358-7.5 7.5v11.431c-3.061.422-5.988.868-8.712 1.34-.611.104-1.053-.146-1.314-.376-.271-.239-.588-.66-.559-1.313l.848-18.838c.033-.73.552-1.356 1.261-1.521 21.429-4.986 45.613-7.411 73.937-7.411s52.508 2.424 73.936 7.411c.71.166 1.229.791 1.262 1.522l.848 18.837c.029.652-.288 1.074-.559 1.313-.262.23-.705.48-1.314.376-2.724-.472-5.651-.917-8.712-1.34v-11.431c-.001-4.142-3.359-7.5-7.501-7.5zm-57.957-63.567c29.261 0 55.333 18.311 65.353 44.7-19.471-3.571-40.98-5.321-65.357-5.321s-45.887 1.75-65.359 5.322c10.021-26.39 36.096-44.701 65.363-44.701zm-92.907 126.112c0-6.602 5.297-11.98 11.862-12.135v24.27c-6.566-.155-11.862-5.533-11.862-12.135zm22.306 157.261c-.889 1.512-2.313 2.587-4.011 3.027l-23.847 6.187c-1.698.441-3.464.194-4.977-.695-1.512-.889-2.587-2.313-3.027-4.011l-4.914-18.939c-.978-3.767 1.292-7.627 5.06-8.604l29.727-7.712 6.686 25.771c.438 1.696.192 3.464-.697 4.976zm15.088-18.692-2.299.597-4.26-16.42.802-.208c3.31-.86 6.7 1.135 7.559 4.444l1.534 5.916c.312 1.203.137 2.456-.493 3.526-.63 1.071-1.639 1.833-2.843 2.145zm55.509 21.631c-15.736 0-29.965-8.549-37.404-22.357.561-2.853.502-5.814-.25-8.712l-.924-3.562 3.346-1.078v1.39c0 4.142 3.358 7.5 7.5 7.5s7.5-3.358 7.5-7.5v-32.465c6.561 1.755 13.339 2.663 20.231 2.663 6.894 0 13.677-.913 20.232-2.661v32.463c0 4.142 3.358 7.5 7.5 7.5s7.5-3.358 7.5-7.5v-1.39l6.331 2.039c-4.095 19.374-21.494 33.67-41.562 33.67zm88.879-34.187-53.647-17.282v-21.001c8.032-4.009 15.499-9.394 22.1-16.063 12.281-12.408 20.29-28.187 22.833-44.518h.589c6.894 0 13.191-2.587 17.984-6.836v4.253c0 27.207 21.54 49.471 48.462 50.651 5.65 5.078 11.838 9.291 18.412 12.572v21l-66.529 21.432c-3.256-1.651-6.662-3.067-10.204-4.208zm111.965 34.244c-20.067 0-37.466-14.296-41.562-33.67l6.331-2.039v1.39c0 4.142 3.358 7.5 7.5 7.5s7.5-3.358 7.5-7.5v-32.462c6.554 1.748 13.338 2.661 20.231 2.661s13.677-.913 20.231-2.661v32.462c0 4.142 3.358 7.5 7.5 7.5s7.5-3.358 7.5-7.5v-1.39l6.331 2.039c-4.096 19.377-21.487 33.67-41.562 33.67z"/><path d="m326.932 190.486c4.142 0 7.5-3.358 7.5-7.5v-5.738c0-4.142-3.358-7.5-7.5-7.5s-7.5 3.358-7.5 7.5v5.738c0 4.142 3.358 7.5 7.5 7.5z"/><path d="m385.912 190.486c4.142 0 7.5-3.358 7.5-7.5v-5.738c0-4.142-3.358-7.5-7.5-7.5s-7.5 3.358-7.5 7.5v5.738c0 4.142 3.358 7.5 7.5 7.5z"/><path d="m133.588 182.928v-5.737c0-4.142-3.358-7.5-7.5-7.5s-7.5 3.358-7.5 7.5v5.737c0 4.142 3.358 7.5 7.5 7.5s7.5-3.358 7.5-7.5z"/><path d="m192.567 182.928v-5.737c0-4.142-3.358-7.5-7.5-7.5s-7.5 3.358-7.5 7.5v5.737c0 4.142 3.358 7.5 7.5 7.5s7.5-3.358 7.5-7.5z"/><path d="m193.269 383.083h-75.382c-4.142 0-7.5 3.358-7.5 7.5v72.483c0 4.142 3.358 7.5 7.5 7.5s7.5-3.358 7.5-7.5v-36.95h60.382v36.95c0 4.142 3.358 7.5 7.5 7.5s7.5-3.358 7.5-7.5v-72.483c0-4.143-3.358-7.5-7.5-7.5zm-67.882 28.033v-13.034h60.382v13.034z"/></g></g></svg>