<svg height="496pt" viewBox="0 0 496 496" width="496pt" xmlns="http://www.w3.org/2000/svg"><path d="m413.015625 49.113281c-20.917969-30.777343-55.527344-49.113281-92.800781-49.113281-61.871094 0-112.214844 50.34375-112.214844 112.214844v71.785156h8c0-17.671875 14.328125-32 32-32 0-8.839844 7.160156-16 16-16h16c26.511719 0 48-21.488281 48-48 0 26.511719 21.488281 48 48 48h16c8.839844 0 16 7.160156 16 16 17.671875 0 32 14.328125 32 32h8v-87.015625c0-22.023437-14.230469-41.273437-34.984375-47.871094zm0 0" fill="#f0bc5e"/><path d="m296 168c0 4.417969-3.582031 8-8 8s-8-3.582031-8-8 3.582031-8 8-8 8 3.582031 8 8zm0 0"/><path d="m376 168c0 4.417969-3.582031 8-8 8s-8-3.582031-8-8 3.582031-8 8-8 8 3.582031 8 8zm0 0"/><path d="m328 232c-8.824219 0-16-7.175781-16-16h-16c0 17.648438 14.351562 32 32 32s32-14.351562 32-32h-16c0 8.824219-7.175781 16-16 16zm0 0"/><path d="m457.710938 317.480469-81.710938-27.25v-16.574219c17.679688-11.558594 30.921875-29.3125 36.726562-50.136719 19.808594-2.367187 35.273438-19.078125 35.273438-39.519531 0-19.742188-14.414062-36.097656-33.265625-39.320312-3.109375-9.640626-12.070313-16.679688-22.734375-16.679688h-16c-22.054688 0-40-17.945312-40-40h-16c0 22.054688-17.945312 40-40 40h-16c-10.664062 0-19.625 7.039062-22.734375 16.679688-18.851563 3.222656-33.265625 19.578124-33.265625 39.320312 0 20.441406 15.464844 37.152344 35.273438 39.519531 5.804687 20.824219 19.046874 38.578125 36.726562 50.136719v16.574219l-81.703125 27.234375c-16.234375 5.414062-28.929687 17.71875-34.847656 33.78125l15.015625 5.53125c4.222656-11.480469 13.296875-20.265625 24.886718-24.136719l79.59375-26.527344c7.566407 17.902344 25.117188 29.886719 45.054688 29.886719s37.488281-11.984375 45.054688-29.878906l79.601562 26.527344c16.351562 5.457031 27.34375 20.703124 27.34375 37.945312v109.40625h-48v-80h-16v80h-240v-29.519531h-16v45.519531h336v-125.40625c0-24.136719-15.382812-45.488281-38.289062-53.113281zm-41.710938-117.480469v-38.527344c9.289062 3.3125 16 12.113282 16 22.527344 0 10.574219-6.921875 19.472656-16.433594 22.65625.167969-2.207031.433594-4.398438.433594-6.65625zm-192-16c0-10.414062 6.710938-19.214844 16-22.527344v38.527344c0 2.257812.265625 4.449219.433594 6.65625-9.511719-3.183594-16.433594-12.082031-16.433594-22.65625zm136 111.015625c-3.671875 14.710937-16.832031 24.984375-32 24.984375s-28.328125-10.273438-32-24.984375v-13.128906c9.9375 3.898437 20.703125 6.113281 32 6.113281s22.0625-2.214844 32-6.113281zm-32-23.015625c-39.695312 0-72-32.304688-72-72v-48c0-4.40625 3.59375-8 8-8h16c20.34375 0 38.191406-10.902344 48-27.175781 9.808594 16.273437 27.65625 27.175781 48 27.175781h16c4.40625 0 8 3.59375 8 8v48c0 39.695312-32.304688 72-72 72zm0 0"/><path d="m96 86.511719-96 61.097656v124.390625h192v-124.390625zm60.527344 57.488281h-121.054688l60.527344-38.511719zm-44.527344 112h-32v-48h32zm16 0v-64h-64v64h-48v-96h160v96zm0 0"/><path d="m186.449219 368c-13.441407-37.96875-49.800781-64-90.449219-64-52.9375 0-96 43.0625-96 96s43.0625 96 96 96c40.648438 0 77.007812-26.03125 90.449219-64h69.550781v32h48v-32h16v32h48v-32h32v-64zm-114.449219 64c-17.671875 0-32-14.328125-32-32s14.328125-32 32-32 32 14.328125 32 32-14.328125 32-32 32zm0 0" fill="#f0bc5e"/><path d="m72 440c-22.054688 0-40-17.945312-40-40s17.945312-40 40-40 40 17.945312 40 40-17.945312 40-40 40zm0-64c-13.230469 0-24 10.769531-24 24s10.769531 24 24 24 24-10.769531 24-24-10.769531-24-24-24zm0 0"/></svg>