<?xml version="1.0" encoding="utf-8"?>
<!-- Generator: Adobe Illustrator 19.0.0, SVG Export Plug-In . SVG Version: 6.00 Build 0)  -->
<svg version="1.1" id="圖層_1" xmlns="http://www.w3.org/2000/svg" xmlns:xlink="http://www.w3.org/1999/xlink" x="0px" y="0px"
	 viewBox="-1 3 496 496" style="enable-background:new -1 3 496 496;" xml:space="preserve">
<style type="text/css">
	.st0{fill:#618985;stroke:#000000;stroke-width:15;stroke-miterlimit:10;}
	.st1{fill:#FFD89E;stroke:#000000;stroke-width:15;stroke-miterlimit:10;}
</style>
<path class="st0" d="M413,59.6c-20.4-28.8-54.1-45.9-90.5-45.9c-60.4,0-109.4,47.1-109.4,104.9l6.8,67.1h1
	c0-16.5,13.9-29.9,31.2-29.9c0-8.3,7-14.9,15.6-14.9h15.6c25.8,0,46.8-20.1,46.8-44.9c0,24.8,21,44.9,46.8,44.9h15.6
	c8.6,0,15.6,6.7,15.6,14.9c17.3,0,31.2,13.4,31.2,29.9h1l6.8-81.4C447.2,83.7,433.3,65.8,413,59.6z"/>
<path d="M298.9,170.1c0,4.3-3.5,7.8-7.8,7.8s-7.8-3.5-7.8-7.8c0-4.3,3.5-7.8,7.8-7.8S298.9,165.8,298.9,170.1z"/>
<path d="M376.9,170.1c0,4.3-3.5,7.8-7.8,7.8s-7.8-3.5-7.8-7.8c0-4.3,3.5-7.8,7.8-7.8S376.9,165.8,376.9,170.1z"/>
<path d="M330.1,232.5c-8.6,0-15.6-7-15.6-15.6h-15.6c0,17.2,14,31.2,31.2,31.2s31.2-14,31.2-31.2h-15.6
	C345.7,225.5,338.7,232.5,330.1,232.5z"/>
<path d="M456.6,315.9l-79.7-26.6v-16.2c17.3-11.3,30.1-28.6,35.8-48.9c19.3-2.3,34.4-18.6,34.4-38.5c0-19.2-14-35.2-32.5-38.3
	c-3-9.5-11.7-16.3-22.1-16.3h-15.6c-21.6,0-39-17.5-39-39h-15.6c0,21.6-17.5,39-39,39h-15.6c-10.4,0-19.1,6.8-22.1,16.3
	c-18.4,3.1-32.5,19.1-32.5,38.3c0,19.9,15.1,36.3,34.4,38.5c5.7,20.3,18.5,37.7,35.8,48.9v16.2l-79.7,26.5
	c-15.8,5.3-28.2,17.3-33.9,33l14.6,5.4c4.1-11.2,13-19.8,24.3-23.5l77.6-25.8c7.3,17.5,24.5,29.2,43.9,29.2s36.6-11.7,44-29.2
	l77.6,25.8c16,5.4,26.6,20.2,26.6,37v106.8h-46.8v-78H416v78H181.9v-28.8h-15.6V490H494V367.7C494,344.2,479,323.3,456.6,315.9z
	 M416,201.3v-37.6c9.1,3.2,15.6,11.8,15.6,21.9c0,10.3-6.7,19-16,22.1C415.7,205.6,416,203.5,416,201.3z M228.7,185.7
	c0-10.1,6.5-18.7,15.6-21.9v37.6c0,2.2,0.3,4.3,0.4,6.5C235.4,204.7,228.7,196,228.7,185.7z M361.3,293.9
	c-3.6,14.3-16.4,24.4-31.2,24.4s-27.6-10-31.2-24.4v-12.8c9.7,3.8,20.2,6,31.2,6c11,0,21.6-2.1,31.2-6V293.9z M330.1,271.5
	c-38.7,0-70.2-31.5-70.2-70.2v-46.8c0-4.3,3.5-7.8,7.8-7.8h15.6c19.8,0,37.3-10.6,46.8-26.5c9.6,15.9,27,26.5,46.8,26.5h15.6
	c4.3,0,7.8,3.5,7.8,7.8v46.8C400.4,240,368.9,271.5,330.1,271.5z"/>
<path class="st1" d="M192,365.1c-13.1-37.1-48.6-62.4-88.2-62.4c-51.6,0-93.6,42-93.6,93.6s42,93.6,93.6,93.6
	c39.6,0,75.1-25.4,88.2-62.4h67.9v31.2h41.9v-31.2h25.4v31.2h41.9v-31.2h31.2v-62.4H192z M102.1,438.3c-23.3,0-42.1-18.8-42.1-42.1
	c0-23.3,18.8-42.1,42.1-42.1s42.1,18.8,42.1,42.1C144.2,419.5,125.4,438.3,102.1,438.3z"/>
</svg>
