<?xml version="1.0" encoding="utf-8"?>
<!-- Generator: Adobe Illustrator 19.0.0, SVG Export Plug-In . SVG Version: 6.00 Build 0)  -->
<svg version="1.1" id="圖層_1" xmlns:svgjs="http://svgjs.com/svgjs"
	 xmlns="http://www.w3.org/2000/svg" xmlns:xlink="http://www.w3.org/1999/xlink" x="0px" y="0px" viewBox="6 -6 512 512"
	 style="enable-background:new 6 -6 512 512;" xml:space="preserve">
<style type="text/css">
	.st0{fill:#555555;}
</style>
<g>
	<link  type="text/css" id="dark-mode-general-link" rel="stylesheet"></link>
	<link  type="text/css" id="dark-mode-custom-link" rel="stylesheet"></link>
	<g>
		<path class="st0" d="M482,42H42c-15.5,0-28,12.5-28,28v360c0,15.5,12.5,28,28,28h440c15.5,0,28-12.5,28-28V70
			C510,54.5,497.5,42,482,42z M190,58h144v137.9l-67.9-40.7c-2.5-1.5-5.7-1.5-8.2,0L190,195.9V58z M494,430c0,6.6-5.4,12-12,12H42
			c-6.6,0-12-5.4-12-12V70c0-6.6,5.4-12,12-12h132v152c0,4.4,3.6,8,8,8c1.5,0,2.9-0.4,4.1-1.1l75.9-45.5l75.9,45.5
			c3.8,2.3,8.7,1,11-2.7c0.7-1.2,1.1-2.7,1.1-4.1V58h132c6.6,0,12,5.4,12,12V430z"/>
	</g>
</g>
</svg>
