<?xml version="1.0"?>
<svg xmlns="http://www.w3.org/2000/svg" xmlns:xlink="http://www.w3.org/1999/xlink" xmlns:svgjs="http://svgjs.com/svgjs" version="1.1" width="512" height="512" x="0" y="0" viewBox="0 0 512 512" style="enable-background:new 0 0 512 512" xml:space="preserve" class=""><g><link type="text/css" rel="stylesheet" id="dark-mode-general-link"/><link type="text/css" rel="stylesheet" id="dark-mode-custom-link"/><style lang="en" type="text/css" id="dark-mode-custom-style"/><g xmlns="http://www.w3.org/2000/svg"><path d="m464 320h-112a8 8 0 0 0 -8 8v96a8 8 0 0 0 8 8h112a8 8 0 0 0 8-8v-96a8 8 0 0 0 -8-8zm-8 96h-96v-80h96z" fill="#ffffff" data-original="#000000" style="" class=""/><path d="m376 408h64a8 8 0 0 0 0-16h-64a8 8 0 0 0 0 16z" fill="#ffffff" data-original="#000000" style="" class=""/><path d="m376 384h64a8 8 0 0 0 0-16h-64a8 8 0 0 0 0 16z" fill="#ffffff" data-original="#000000" style="" class=""/><path d="m376 360h64a8 8 0 0 0 0-16h-64a8 8 0 0 0 0 16z" fill="#ffffff" data-original="#000000" style="" class=""/><path d="m476 48h-440a28.031 28.031 0 0 0 -28 28v360a28.031 28.031 0 0 0 28 28h440a28.031 28.031 0 0 0 28-28v-360a28.031 28.031 0 0 0 -28-28zm-292 16h144v137.87l-67.88-40.73a8.015 8.015 0 0 0 -8.24 0l-67.88 40.73zm304 372a12.01 12.01 0 0 1 -12 12h-440a12.01 12.01 0 0 1 -12-12v-360a12.01 12.01 0 0 1 12-12h132v152a8 8 0 0 0 12.12 6.86l75.88-45.53 75.88 45.53a8 8 0 0 0 12.12-6.86v-152h132a12.01 12.01 0 0 1 12 12z" fill="#ffffff" data-original="#000000" style="" class=""/></g></g></svg>
