<?xml version="1.0" encoding="utf-8"?>
<!-- Generator: Adobe Illustrator 19.0.0, SVG Export Plug-In . SVG Version: 6.00 Build 0)  -->
<svg version="1.1" id="圖層_1" xmlns:svgjs="http://svgjs.com/svgjs"
	 xmlns="http://www.w3.org/2000/svg" xmlns:xlink="http://www.w3.org/1999/xlink" x="0px" y="0px" viewBox="6 -6 512 512"
	 style="enable-background:new 6 -6 512 512;" xml:space="preserve">
<style type="text/css">
	.st0{fill:#555555;}
</style>
<g>
	<link  type="text/css" id="dark-mode-general-link" rel="stylesheet"></link>
	<link  type="text/css" id="dark-mode-custom-link" rel="stylesheet"></link>
	<path class="st0" d="M480.3,204.3H316.9c-5,0-9.1-4.1-9.1-9.1V31.7C307.7,6.5,287.2-6,262-6s-45.7,12.5-45.7,37.7v163.4
		c0,5-4.1,9.1-9.1,9.1H43.7C18.5,204.3,6,224.8,6,250s12.5,45.7,37.7,45.7h163.4c5,0,9.1,4.1,9.1,9.1v163.4
		c0,25.2,20.5,37.7,45.7,37.7s45.7-12.5,45.7-37.7V304.9c0-5,4.1-9.1,9.1-9.1h163.4c25.2,0,37.7-20.5,37.7-45.7
		S505.5,204.3,480.3,204.3z"/>
</g>
</svg>
