<svg id="Capa_1" enable-background="new 0 0 511.985 511.985" height="512" viewBox="0 0 511.985 511.985" width="512" xmlns="http://www.w3.org/2000/svg"><g id="XMLID_1583_"><g id="XMLID_1073_"><path id="XMLID_4448_" d="m437.529 300.783c13.557-7.827 18.202-25.162 10.375-38.719l-137.264-237.748c-7.827-13.557-25.162-18.202-38.719-10.375-13.557 7.827-18.202 25.162-10.375 38.719l137.264 237.748c7.827 13.557 25.162 18.201 38.719 10.375z" fill="#80b4ff"/></g><g id="XMLID_1072_"><path id="XMLID_4447_" d="m136.76 395.873c12.063-6.965 16.197-22.39 9.232-34.453l-72.353-125.319c-6.965-12.063-22.39-16.197-34.453-9.232-12.063 6.965-16.197 22.39-9.232 34.453l72.353 125.319c6.965 12.064 22.39 16.197 34.453 9.232z" fill="#80b4ff"/></g><g id="XMLID_1071_"><path id="XMLID_4446_" d="m90.339 371.862 2.576-1.487-53.569-92.785-2.576 1.487c-25.622 14.793-34.4 47.555-19.608 73.177 14.792 25.622 47.555 34.401 73.177 19.608z" fill="#ff7a7a"/></g><g id="XMLID_1066_"><path id="XMLID_4445_" d="m71.086 231.679 191.694-176.882 134.796 233.474-249.031 77.571z" fill="#fff"/></g><g id="XMLID_1065_"><path id="XMLID_4444_" d="m400.957 180.753c20.745-11.977 27.853-38.504 15.876-59.249s-38.504-27.853-59.249-15.876z" fill="#ff7a7a"/></g><g id="XMLID_1064_"><path id="XMLID_4397_" d="m148.545 365.842 75.72 131.152c2.689 4.657 8.643 6.252 13.3 3.564l46.043-26.583c5.835-3.369 6.567-11.503 1.427-15.859l-34.78-29.478-45.431-78.689z" fill="#b3d3ff"/></g><g id="XMLID_1007_"><path id="XMLID_1090_" d="m414.141 183.587c19.011-16.399 24.356-44.557 11.351-67.083-13.005-22.525-40.063-31.976-63.771-23.711l-42.421-73.476c-5.121-8.87-13.39-15.215-23.283-17.866-9.895-2.65-20.226-1.291-29.096 3.831-16.656 9.616-23.366 29.926-16.487 47.3l-57.65 53.196c-4.059 3.745-4.313 10.072-.568 14.131 3.745 4.06 10.072 4.313 14.13.568l54.025-49.851 122.292 211.816-229.458 71.473-69.46-120.31 56.468-52.104c4.059-3.745 4.313-10.072.568-14.131-3.745-4.06-10.072-4.313-14.13-.568l-56.303 51.953c-2.892-1.785-6.06-3.159-9.434-4.063-9.088-2.437-18.58-1.187-26.727 3.519-16.819 9.711-22.603 31.294-12.892 48.113l4.59 7.951c-25.748 18.917-33.721 54.682-17.382 82.98 8.49 14.705 22.198 25.224 38.6 29.618 5.477 1.468 11.034 2.193 16.556 2.193 8.712 0 17.332-1.814 25.403-5.368l4.587 7.944c4.704 8.147 12.299 13.976 21.387 16.41 3.035.813 6.113 1.216 9.173 1.216 6.103 0 12.127-1.601 17.554-4.734 4.719-2.725 8.568-6.384 11.451-10.61l62.394 108.07c3.652 6.324 10.299 9.864 17.125 9.864 3.346 0 6.735-.851 9.835-2.641l46.044-26.583c5.554-3.207 9.214-8.936 9.789-15.323s-2.003-12.678-6.896-16.825l-33.455-28.354-39.111-67.742 174.394-54.321c7.41 9.347 18.616 14.504 30.091 14.504 6.5 0 13.085-1.652 19.107-5.13 18.311-10.571 24.606-34.069 14.035-52.379zm-361.863 183.967c-11.242-3.012-20.637-10.221-26.456-20.3-10.816-18.734-6.091-42.248 10.146-55.514l43.007 74.489c-8.489 3.232-17.752 3.721-26.697 1.325zm86.574 10.416c-1.052 3.928-3.571 7.21-7.092 9.243-3.521 2.034-7.625 2.573-11.55 1.521-3.927-1.052-7.209-3.57-9.243-7.092l-72.353-125.319c-2.033-3.521-2.573-7.623-1.521-11.55 1.052-3.928 3.571-7.21 7.092-9.243 2.346-1.354 4.949-2.046 7.586-2.046 1.322 0 2.653.174 3.964.525 3.927 1.052 7.209 3.57 9.243 7.092l72.353 125.319c2.034 3.522 2.574 7.623 1.521 11.55zm102.744 55.666c.575.996 1.317 1.885 2.194 2.629l34.495 29.236-45.491 26.264-69.337-120.095 35.905-11.184zm166.576-307.132c7.459 12.92 5.268 28.806-4.32 39.261l-31.84-55.149c13.846-3.076 28.701 2.968 36.16 15.888zm32.904 154.48c-1.268 4.732-4.304 8.688-8.547 11.139s-9.188 3.102-13.919 1.832c-4.733-1.268-8.689-4.304-11.139-8.547l-137.265-237.748c-5.057-8.76-2.045-20.001 6.715-25.059 2.827-1.632 5.964-2.466 9.143-2.466 1.593 0 3.197.21 4.777.633 4.733 1.269 8.688 4.304 11.139 8.548l137.264 237.747c2.449 4.244 3.1 9.187 1.832 13.921z"/><path id="XMLID_1243_" d="m451.638 111.775c1.696 0 3.416-.433 4.991-1.342l33.775-19.5c4.783-2.762 6.422-8.877 3.66-13.66-2.761-4.783-8.878-6.423-13.66-3.66l-33.775 19.5c-4.783 2.762-6.422 8.877-3.66 13.66 1.852 3.208 5.213 5.002 8.669 5.002z"/><path id="XMLID_1251_" d="m400.138 66.731c.867.232 1.738.344 2.595.344 4.415 0 8.456-2.947 9.653-7.415l10.341-38.592c1.43-5.334-1.736-10.817-7.071-12.247s-10.818 1.736-12.248 7.071l-10.341 38.592c-1.43 5.334 1.736 10.817 7.071 12.247z"/><path id="XMLID_1308_" d="m504.571 166.79-36.852-9.874c-5.332-1.43-10.818 1.736-12.247 7.071-1.43 5.334 1.736 10.817 7.071 12.247l36.851 9.874c.867.232 1.738.344 2.595.344 4.415 0 8.456-2.947 9.653-7.415 1.43-5.334-1.736-10.817-7.071-12.247z"/><path id="XMLID_1362_" d="m166.499 153.641c2.63 0 5.21-1.07 7.07-2.93s2.93-4.44 2.93-7.07-1.07-5.21-2.93-7.07c-1.86-1.869-4.44-2.93-7.07-2.93s-5.21 1.061-7.07 2.93c-1.86 1.86-2.93 4.431-2.93 7.07 0 2.63 1.07 5.21 2.93 7.07s4.44 2.93 7.07 2.93z"/></g></g></svg>