<?xml version="1.0" encoding="utf-8"?>
<!-- Generator: Adobe Illustrator 19.0.0, SVG Export Plug-In . SVG Version: 6.00 Build 0)  -->
<svg version="1.1" id="Capa_1" xmlns="http://www.w3.org/2000/svg" xmlns:xlink="http://www.w3.org/1999/xlink" x="0px" y="0px"
	 viewBox="6 -6 512 512" style="enable-background:new 6 -6 512 512;" xml:space="preserve">
<style type="text/css">
	.st0{fill:#0091C0;}
	.st1{fill:#F8E8BB;}
	.st2{fill:#FFFFFF;}
	.st3{fill:#B8C6CC;}
</style>
<g id="XMLID_1583_">
	<g id="XMLID_1073_">
		<path id="XMLID_4448_" class="st0" d="M443.5,294.8c13.6-7.8,18.2-25.2,10.4-38.7L316.6,18.3c-7.8-13.6-25.2-18.2-38.7-10.4
			s-18.2,25.2-10.4,38.7l137.3,237.8C412.6,298,430,302.6,443.5,294.8z"/>
	</g>
	<g id="XMLID_1072_">
		<path id="XMLID_4447_" class="st0" d="M142.8,389.9c12.1-7,16.2-22.4,9.2-34.5L79.6,230.1c-7-12.1-22.4-16.2-34.5-9.2
			c-12.1,7-16.2,22.4-9.2,34.5l72.4,125.3C115.3,392.7,130.7,396.8,142.8,389.9z"/>
	</g>
	<g id="XMLID_1071_">
		<path id="XMLID_4446_" class="st1" d="M96.3,365.9l2.6-1.5l-53.6-92.8l-2.6,1.5c-25.6,14.8-34.4,47.6-19.6,73.2
			C38,371.9,70.7,380.7,96.3,365.9z"/>
	</g>
	<g id="XMLID_1066_">
		<path id="XMLID_4445_" class="st2" d="M77.1,225.7L268.8,48.8l134.8,233.5l-249,77.6L77.1,225.7z"/>
	</g>
	<g id="XMLID_1065_">
		<path id="XMLID_4444_" class="st1" d="M407,174.8c20.7-12,27.9-38.5,15.9-59.3c-12-20.7-38.5-27.9-59.3-15.9L407,174.8z"/>
	</g>
	<g id="XMLID_1064_">
		<path id="XMLID_4397_" class="st3" d="M154.5,359.9L230.3,491c2.7,4.7,8.6,6.3,13.3,3.6l46-26.6c5.8-3.4,6.6-11.5,1.4-15.9
			l-34.8-29.5L210.8,344L154.5,359.9z"/>
	</g>
	<g id="XMLID_1007_">
		<path id="XMLID_1090_" d="M420.2,177.6c19-16.4,24.4-44.6,11.4-67.1c-13-22.5-40.1-32-63.8-23.7l-42.4-73.5
			C320.2,4.4,311.9-1.9,302-4.5c-9.9-2.7-20.2-1.3-29.1,3.8c-16.7,9.6-23.4,29.9-16.5,47.3l-57.7,53.2c-4.1,3.7-4.3,10.1-0.6,14.1
			c3.7,4.1,10.1,4.3,14.1,0.6l54-49.9l122.3,211.8l-229.5,71.5L89.7,227.6l56.5-52.1c4.1-3.7,4.3-10.1,0.6-14.1
			c-3.7-4.1-10.1-4.3-14.1-0.6l-56.3,52c-2.9-1.8-6.1-3.2-9.4-4.1c-9.1-2.4-18.6-1.2-26.7,3.5c-16.8,9.7-22.6,31.3-12.9,48.1l4.6,8
			c-25.7,18.9-33.7,54.7-17.4,83c8.5,14.7,22.2,25.2,38.6,29.6c5.5,1.5,11,2.2,16.6,2.2c8.7,0,17.3-1.8,25.4-5.4l4.6,7.9
			c4.7,8.1,12.3,14,21.4,16.4c3,0.8,6.1,1.2,9.2,1.2c6.1,0,12.1-1.6,17.6-4.7c4.7-2.7,8.6-6.4,11.5-10.6L221.6,496
			c3.7,6.3,10.3,9.9,17.1,9.9c3.3,0,6.7-0.9,9.8-2.6l46-26.6c5.6-3.2,9.2-8.9,9.8-15.3c0.6-6.4-2-12.7-6.9-16.8l-33.5-28.4
			l-39.1-67.7l174.4-54.3c7.4,9.3,18.6,14.5,30.1,14.5c6.5,0,13.1-1.7,19.1-5.1c18.3-10.6,24.6-34.1,14-52.4L420.2,177.6z
			 M58.3,361.6c-11.2-3-20.6-10.2-26.5-20.3C21,322.5,25.7,299,42,285.7l43,74.5C76.5,363.5,67.2,364,58.3,361.6z M144.9,372
			c-1.1,3.9-3.6,7.2-7.1,9.2c-3.5,2-7.6,2.6-11.6,1.5c-3.9-1.1-7.2-3.6-9.2-7.1L44.6,250.3c-2-3.5-2.6-7.6-1.5-11.6
			c1.1-3.9,3.6-7.2,7.1-9.2c2.3-1.4,4.9-2,7.6-2c1.3,0,2.7,0.2,4,0.5c3.9,1.1,7.2,3.6,9.2,7.1l72.4,125.3
			C145.4,364,145.9,368.1,144.9,372L144.9,372z M247.6,427.6c0.6,1,1.3,1.9,2.2,2.6l34.5,29.2l-45.5,26.3l-69.3-120.1l35.9-11.2
			L247.6,427.6z M414.2,120.5c7.5,12.9,5.3,28.8-4.3,39.3L378,104.6C391.9,101.5,406.7,107.6,414.2,120.5z M447.1,275
			c-1.3,4.7-4.3,8.7-8.5,11.1c-4.2,2.5-9.2,3.1-13.9,1.8c-4.7-1.3-8.7-4.3-11.1-8.5L276.2,41.7c-5.1-8.8-2-20,6.7-25.1
			c2.8-1.6,6-2.5,9.1-2.5c1.6,0,3.2,0.2,4.8,0.6c4.7,1.3,8.7,4.3,11.1,8.5l137.3,237.8C447.7,265.3,448.4,270.3,447.1,275L447.1,275
			z"/>
		<path id="XMLID_1243_" d="M457.7,105.8c1.7,0,3.4-0.4,5-1.3l33.8-19.5c4.8-2.8,6.4-8.9,3.7-13.7c-2.8-4.8-8.9-6.4-13.7-3.7
			l-33.8,19.5c-4.8,2.8-6.4,8.9-3.7,13.7C450.8,104,454.2,105.8,457.7,105.8z"/>
		<path id="XMLID_1251_" d="M406.1,60.7c0.9,0.2,1.7,0.3,2.6,0.3c4.4,0,8.5-2.9,9.7-7.4l10.3-38.6c1.4-5.3-1.7-10.8-7.1-12.2
			c-5.3-1.4-10.8,1.7-12.2,7.1l-10.3,38.6C397.6,53.8,400.8,59.3,406.1,60.7z"/>
		<path id="XMLID_1308_" d="M510.6,160.8l-36.9-9.9c-5.3-1.4-10.8,1.7-12.2,7.1c-1.4,5.3,1.7,10.8,7.1,12.2l36.9,9.9
			c0.9,0.2,1.7,0.3,2.6,0.3c4.4,0,8.5-2.9,9.7-7.4C519.1,167.7,515.9,162.2,510.6,160.8z"/>
		<path id="XMLID_1362_" d="M172.5,147.6c2.6,0,5.2-1.1,7.1-2.9c1.9-1.9,2.9-4.4,2.9-7.1s-1.1-5.2-2.9-7.1c-1.9-1.9-4.4-2.9-7.1-2.9
			s-5.2,1.1-7.1,2.9c-1.9,1.9-2.9,4.4-2.9,7.1c0,2.6,1.1,5.2,2.9,7.1C167.3,146.6,169.9,147.6,172.5,147.6z"/>
	</g>
</g>
</svg>
