<?xml version="1.0" encoding="iso-8859-1"?>
<!-- Generator: Adobe Illustrator 19.0.0, SVG Export Plug-In . SVG Version: 6.00 Build 0)  -->
<svg version="1.1" id="Capa_1" xmlns="http://www.w3.org/2000/svg" xmlns:xlink="http://www.w3.org/1999/xlink" x="0px" y="0px"
	 viewBox="0 0 512 512" style="enable-background:new 0 0 512 512;" xml:space="preserve">
<circle style="fill:#FFC66C;" cx="148.072" cy="323.929" r="138.067"/>
<circle style="fill:#FFB954;" cx="363.908" cy="323.869" r="138.067"/>
<path d="M110.903,298.33c0-2.631-1.071-5.213-2.931-7.072c-1.861-1.861-4.432-2.932-7.073-2.932c-2.631,0-5.213,1.071-7.073,2.932
	c-1.861,1.86-2.931,4.441-2.931,7.072c0,2.642,1.071,5.213,2.931,7.083c1.861,1.861,4.442,2.921,7.073,2.921
	c2.631,0,5.213-1.061,7.073-2.921C109.833,303.543,110.903,300.972,110.903,298.33z"/>
<path d="M195.243,288.325c-2.631,0-5.213,1.071-7.073,2.932c-1.861,1.86-2.931,4.441-2.931,7.072c0,2.642,1.071,5.213,2.931,7.083
	c1.861,1.861,4.442,2.921,7.073,2.921s5.213-1.061,7.073-2.921c1.861-1.871,2.931-4.452,2.931-7.083s-1.071-5.213-2.931-7.072
	C200.457,289.397,197.876,288.325,195.243,288.325z"/>
<path d="M183.966,346.195c-5.338-1.43-10.821,1.746-12.248,7.083c-2.859,10.702-12.582,18.178-23.646,18.178
	s-20.786-7.476-23.646-18.178c-1.426-5.339-6.909-8.515-12.248-7.083c-5.338,1.427-8.509,6.909-7.083,12.248
	c5.194,19.443,22.867,33.023,42.978,33.023c20.11,0,37.783-13.58,42.977-33.023C192.475,353.105,189.303,347.621,183.966,346.195z"
	/>
<path d="M256.121,123.519c5.526,0,10.005-4.479,10.005-10.005V50c0-5.526-4.479-10.005-10.005-10.005
	c-5.526,0-10.005,4.479-10.005,10.005v63.514C246.116,119.04,250.595,123.519,256.121,123.519z"/>
<path d="M256.124,138.863c-2.641,0-5.213,1.061-7.083,2.931c-1.861,1.861-2.921,4.442-2.921,7.073c0,2.631,1.061,5.213,2.921,7.073
	c1.871,1.861,4.442,2.931,7.083,2.931c2.631,0,5.213-1.071,7.073-2.931c1.861-1.861,2.931-4.442,2.931-7.073
	c0-2.631-1.071-5.213-2.931-7.073C261.336,139.924,258.754,138.863,256.124,138.863z"/>
<path d="M181.009,145.105c1.953,1.952,4.512,2.927,7.071,2.927c2.562,0,5.124-0.978,7.077-2.933
	c3.905-3.909,3.903-10.243-0.006-14.149l-25.542-25.52c-3.908-3.905-10.244-3.903-14.149,0.006s-3.903,10.243,0.006,14.149
	L181.009,145.105z"/>
<path d="M322.573,149.716c2.562,0,5.124-0.978,7.077-2.933l27.155-27.177c3.906-3.909,3.903-10.244-0.005-14.149
	c-3.909-3.906-10.244-3.903-14.149,0.005l-27.155,27.177c-3.906,3.909-3.903,10.244,0.005,14.149
	C317.455,148.74,320.014,149.716,322.573,149.716z"/>
<path d="M506.938,285.54c-21.132-78.867-102.486-125.836-181.351-104.702c-27.068,7.253-50.981,21.674-69.659,41.643
	c-27.946-29.764-66.622-46.621-107.856-46.621C66.425,175.86,0,242.286,0,323.933s66.425,148.072,148.072,148.072
	c41.273,0,80.011-16.909,107.967-46.745c27.682,29.351,66.721,46.694,107.906,46.694c12.649,0,25.505-1.637,38.29-5.062
	C481.1,445.759,528.07,364.404,506.938,285.54z M148.072,451.995c-70.614,0-128.063-57.449-128.063-128.063
	c0-70.614,57.448-128.063,128.063-128.063c36.555,0,70.791,15.319,95.088,42.282c-2.654,3.754-5.157,7.645-7.484,11.676
	c-19.776,34.253-25.029,74.157-14.792,112.36c4.697,17.533,12.371,33.487,22.332,47.469
	C218.914,436.654,184.64,451.995,148.072,451.995z M397.056,447.564c-68.207,18.271-138.568-22.347-156.844-90.554
	c-8.853-33.041-4.31-67.553,12.793-97.176c3.156-5.466,6.671-10.642,10.51-15.509c0.166-0.191,0.32-0.389,0.47-0.59
	c16.93-21.203,40.082-36.415,66.78-43.569c11.061-2.963,22.173-4.378,33.116-4.378c56.536,0,108.415,37.785,123.727,94.931
	C505.886,358.927,465.263,429.287,397.056,447.564z"/>
<path d="M334.605,304.249c-3.097-11.558-15.014-18.444-26.577-15.346c-11.558,3.098-18.441,15.019-15.343,26.577
	c1.198,4.47,5.24,7.419,9.658,7.419c0.856,0,1.729-0.111,2.595-0.344c5.338-1.431,8.505-6.915,7.074-12.253
	c-0.241-0.9,0.295-1.83,1.195-2.071c0.558-0.148,1.007,0.01,1.283,0.169c0.276,0.16,0.638,0.468,0.788,1.027
	c1.43,5.337,6.914,8.506,12.253,7.074C332.869,315.072,336.035,309.587,334.605,304.249z"/>
<path d="M415.058,266.806c-5.02-2.897-10.868-3.668-16.466-2.167c-5.599,1.5-10.279,5.09-13.176,10.11
	c-2.898,5.02-3.669,10.867-2.168,16.467c1.198,4.47,5.24,7.418,9.658,7.418c0.856-0.001,1.729-0.111,2.596-0.344
	c5.337-1.431,8.504-6.916,7.074-12.254c-0.149-0.558,0.009-1.005,0.169-1.282c0.16-0.276,0.467-0.638,1.026-0.787
	c0.558-0.149,1.007,0.01,1.283,0.169c0.276,0.159,0.637,0.467,0.787,1.025c1.43,5.337,6.914,8.505,12.253,7.074
	c5.338-1.431,8.505-6.915,7.074-12.253C423.668,274.383,420.078,269.704,415.058,266.806z"/>
<path d="M404.15,335.685c-5.338,1.431-8.504,6.915-7.074,12.253c3.404,12.705-4.163,25.812-16.868,29.216
	c-6.156,1.65-12.584,0.802-18.101-2.383c-5.519-3.187-9.466-8.33-11.114-14.485c-1.431-5.337-6.916-8.508-12.254-7.074
	c-5.337,1.431-8.504,6.916-7.074,12.253c3.032,11.319,10.291,20.777,20.438,26.635c6.758,3.902,14.26,5.896,21.861,5.896
	c3.811,0,7.646-0.5,11.425-1.514c23.362-6.26,37.276-30.361,31.017-53.722C414.974,337.423,409.487,334.254,404.15,335.685z"/>
<g>
</g>
<g>
</g>
<g>
</g>
<g>
</g>
<g>
</g>
<g>
</g>
<g>
</g>
<g>
</g>
<g>
</g>
<g>
</g>
<g>
</g>
<g>
</g>
<g>
</g>
<g>
</g>
<g>
</g>
</svg>
