<?xml version="1.0"?>
<svg xmlns="http://www.w3.org/2000/svg" xmlns:xlink="http://www.w3.org/1999/xlink" xmlns:svgjs="http://svgjs.com/svgjs" version="1.1" width="512" height="512" x="0" y="0" viewBox="0 0 512 512" style="enable-background:new 0 0 512 512" xml:space="preserve" class=""><g><link type="text/css" rel="stylesheet" id="dark-mode-general-link"/><link type="text/css" rel="stylesheet" id="dark-mode-custom-link"/><style lang="en" type="text/css" id="dark-mode-custom-style"/><g xmlns="http://www.w3.org/2000/svg"><path d="M464,320H352a8,8,0,0,0-8,8v96a8,8,0,0,0,8,8H464a8,8,0,0,0,8-8V328A8,8,0,0,0,464,320Zm-8,96H360V336h96Z" fill="#ffffff" data-original="#000000" style="" class=""/><path d="M376,408h64a8,8,0,0,0,0-16H376a8,8,0,0,0,0,16Z" fill="#ffffff" data-original="#000000" style="" class=""/><path d="M376,384h64a8,8,0,0,0,0-16H376a8,8,0,0,0,0,16Z" fill="#ffffff" data-original="#000000" style="" class=""/><path d="M376,360h64a8,8,0,0,0,0-16H376a8,8,0,0,0,0,16Z" fill="#ffffff" data-original="#000000" style="" class=""/><path d="M476,48H100A28.031,28.031,0,0,0,72,76V270.44L69.61,272H48v-7a8,8,0,0,0-8-8H16a8,8,0,0,0-8,8V400a8,8,0,0,0,8,8H40a8,8,0,0,0,8-8v-8H68.69L72,395.31V436a28.031,28.031,0,0,0,28,28H476a28.031,28.031,0,0,0,28-28V76A28.031,28.031,0,0,0,476,48ZM32,392H24V273h8ZM216,64H360V201.87l-67.88-40.73a8.015,8.015,0,0,0-8.24,0L216,201.87ZM77.66,378.34A8.008,8.008,0,0,0,72,376H48V288H72a7.923,7.923,0,0,0,4.38-1.31l47.4-31.03a7.24,7.24,0,0,0,1.19-.94l32.25-31.26.09-.09a8,8,0,0,1,11.32,11.32l-.09.09-30.26,31.25a8.006,8.006,0,0,0,5.62,13.57l23.97.4H240a8,8,0,0,1,0,16H168a8,8,0,0,0,0,16h96a8,8,0,0,1,0,16H168a8,8,0,0,0,0,16h72a8,8,0,0,1,0,16H168a8,8,0,0,0,0,16h40a8,8,0,0,1,0,16H91.31ZM488,436a12.01,12.01,0,0,1-12,12H100a12.01,12.01,0,0,1-12-12V408H208a23.982,23.982,0,0,0,22.62-32H240a23.982,23.982,0,0,0,22.62-32H264a24,24,0,0,0,0-48h-1.38A23.982,23.982,0,0,0,240,264H168.07l-5.46-.09,17.38-17.96a24,24,0,0,0-33.94-33.94l-31.67,30.68L88,259.96V76a12.01,12.01,0,0,1,12-12H200V216a8,8,0,0,0,12.12,6.86L288,177.33l75.88,45.53A8,8,0,0,0,376,216V64H476a12.01,12.01,0,0,1,12,12Z" fill="#ffffff" data-original="#000000" style="" class=""/></g></g></svg>
