<?xml version="1.0" encoding="utf-8"?>
<!-- Generator: Adobe Illustrator 19.0.0, SVG Export Plug-In . SVG Version: 6.00 Build 0)  -->
<svg version="1.1" id="圖層_1" xmlns:svgjs="http://svgjs.com/svgjs"
	 xmlns="http://www.w3.org/2000/svg" xmlns:xlink="http://www.w3.org/1999/xlink" x="0px" y="0px" viewBox="6 -6 512 512"
	 style="enable-background:new 6 -6 512 512;" xml:space="preserve">
<style type="text/css">
	.st0{fill:#555555;}
</style>
<g>
	<link  type="text/css" id="dark-mode-general-link" rel="stylesheet"></link>
	<link  type="text/css" id="dark-mode-custom-link" rel="stylesheet"></link>
	<g>
		<path class="st0" d="M482,42H106c-15.5,0-28,12.5-28,28v194.4l-2.4,1.6H54v-7c0-4.4-3.6-8-8-8H22c-4.4,0-8,3.6-8,8v135
			c0,4.4,3.6,8,8,8h24c4.4,0,8-3.6,8-8v-8h20.7l3.3,3.3V430c0,15.5,12.5,28,28,28h376c15.5,0,28-12.5,28-28V70
			C510,54.5,497.5,42,482,42z M38,386h-8V267h8V386z M222,58h144v137.9l-67.9-40.7c-2.5-1.5-5.7-1.5-8.2,0L222,195.9V58z
			 M83.7,372.3c-1.5-1.5-3.5-2.3-5.7-2.3H54v-88h24c1.6,0,3.1-0.5,4.4-1.3l47.4-31c0.4-0.3,0.8-0.6,1.2-0.9l32.3-31.3l0.1-0.1
			c3.1-3.1,8.2-3.1,11.3,0c3.1,3.1,3.1,8.2,0,11.3l-0.1,0.1L144.3,260c-3.1,3.2-3,8.2,0.2,11.3c1.5,1.4,3.4,2.2,5.4,2.2l24,0.4H246
			c4.4,0,8,3.6,8,8s-3.6,8-8,8h-72c-4.4,0-8,3.6-8,8s3.6,8,8,8h96c4.4,0,8,3.6,8,8s-3.6,8-8,8h-96c-4.4,0-8,3.6-8,8s3.6,8,8,8h72
			c4.4,0,8,3.6,8,8s-3.6,8-8,8h-72c-4.4,0-8,3.6-8,8s3.6,8,8,8h40c4.4,0,8,3.6,8,8s-3.6,8-8,8H97.3L83.7,372.3z M494,430
			c0,6.6-5.4,12-12,12H106c-6.6,0-12-5.4-12-12v-28h120c13.2,0,24-10.7,24-24c0-2.7-0.5-5.5-1.4-8h9.4c13.2,0,24-10.7,24-24
			c0-2.7-0.5-5.5-1.4-8h1.4c13.3,0,24-10.7,24-24s-10.7-24-24-24h-1.4c4.4-12.5-2.1-26.2-14.6-30.6c-2.6-0.9-5.3-1.4-8-1.4h-71.9
			l-5.5-0.1l17.4-18c9.3-9.4,9.2-24.6-0.3-33.9c-9.3-9.2-24.3-9.2-33.7,0l-31.7,30.7L94,254V70c0-6.6,5.4-12,12-12h100v152
			c0,4.4,3.6,8,8,8c1.5,0,2.9-0.4,4.1-1.1l75.9-45.5l75.9,45.5c3.8,2.3,8.7,1,11-2.7c0.7-1.2,1.1-2.7,1.1-4.1V58h100
			c6.6,0,12,5.4,12,12V430z"/>
	</g>
</g>
</svg>
