<?xml version="1.0" encoding="utf-8"?>
<!-- Generator: Adobe Illustrator 19.0.0, SVG Export Plug-In . SVG Version: 6.00 Build 0)  -->
<svg version="1.1" id="Layer_1" xmlns="http://www.w3.org/2000/svg" xmlns:xlink="http://www.w3.org/1999/xlink" x="0px" y="0px"
	 viewBox="6 -6 512 512" style="enable-background:new 6 -6 512 512;" xml:space="preserve">
<style type="text/css">
	.st0{fill:#FFD89E;}
</style>
<path class="st0" d="M470.7,433.9H53.3c-11.9,0-19.2-13.1-13.1-23.2L239.4,78.8c10.2-17,35-17.1,45.3,0l199.2,331.9
	C489.9,420.9,482.6,433.9,470.7,433.9z"/>
<g>
	<path d="M262,314c-8.8,0-16-7.2-16-16V186c0-8.8,7.2-16,16-16c8.8,0,16,7.2,16,16v112C278,306.8,270.8,314,262,314z"/>
	<path d="M511.2,394.3L312.1,62.3c-22.6-37.7-77.5-37.7-100.1,0L12.8,394.3c-18.8,31.4,3.8,71.7,40.6,71.7h417.3
		C507.4,465.9,530.1,425.7,511.2,394.3L511.2,394.3z M470.7,433.9H53.3c-11.9,0-19.2-13.1-13.1-23.2L239.4,78.8
		c10.2-17,35-17.1,45.3,0l199.2,331.9C489.9,420.9,482.6,433.9,470.7,433.9z"/>
	<circle cx="262" cy="354" r="24"/>
</g>
</svg>
